<svg width="24" height="24" viewBox="0 0 24 24" fill="none" xmlns="http://www.w3.org/2000/svg">
<path d="M22.7891 13.1074H1.17982C0.527814 13.1074 0 12.56 0 11.8838C0 11.2076 0.527814 10.6602 1.17982 10.6602H22.8202C23.4722 10.6602 24 11.2076 24 11.8838C24 12.56 23.4722 13.1074 22.7891 13.1074Z" fill="black"/>
<path d="M22.7891 3.44723H1.17982C0.527814 3.44723 0 2.89982 0 2.22361C0 1.54741 0.527814 1 1.17982 1H22.8202C23.4722 1 24 1.54741 24 2.22361C24 2.89982 23.4722 3.44723 22.7891 3.44723Z" fill="black"/>
<path d="M22.7891 22.7675H1.17982C0.527814 22.7675 0 22.2201 0 21.5439C0 20.8677 0.527814 20.3203 1.17982 20.3203H22.8202C23.4722 20.3203 24 20.8677 24 21.5439C24 22.2201 23.4722 22.7675 22.7891 22.7675Z" fill="black"/>
</svg>
