<svg width="48" height="48" viewBox="0 0 48 48" fill="none" xmlns="http://www.w3.org/2000/svg">
<circle cx="24" cy="24" r="24" fill="#124A9D"/>
<path d="M10.464 27.832C10.8015 28.5094 11.2066 28.9372 11.7466 29.1511C12.8605 29.5433 14.1768 28.8659 16.7758 27.5111C17.5184 27.1189 18.3622 26.691 19.3073 26.1919C20.7925 25.4432 22.6151 24.5518 24.3703 23.7318C26.5305 22.6979 28.5557 21.6996 29.7033 21.0935C31.5597 20.1308 33.9225 18.3481 34.4288 16.5655C34.6313 15.8881 34.5638 15.2106 34.2263 14.6402C32.9099 12.2158 31.1885 12.8932 28.3194 14.0341C27.2056 14.4619 26.0917 14.7472 25.0116 14.8541C24.9104 15.4246 24.8091 16.1376 24.7416 16.6368C24.7416 16.815 24.6066 16.922 24.4378 16.922H23.864C23.6952 16.922 23.5265 16.7437 23.5602 16.5655C23.594 16.0663 23.729 15.3533 23.7965 14.8185C23.3577 14.7828 22.9189 14.7115 22.4464 14.6045C22.3114 15.4959 22.2101 16.1733 22.1764 16.6368C22.1764 16.815 22.0076 16.922 21.8388 16.922L21.265 16.8864C21.0963 16.8864 20.9612 16.7081 20.9612 16.5298C21.0287 15.8881 21.13 15.0324 21.265 14.355C20.7587 14.248 20.2862 14.1054 19.9149 13.9984C19.7461 15.3176 19.6449 16.0663 19.6449 16.4942C19.6449 16.6724 19.5098 16.815 19.3411 16.7794H18.7673C18.5985 16.7794 18.4635 16.6368 18.4635 16.4229C18.4973 15.8168 18.5985 14.8541 18.7673 13.6062C18.2947 13.4636 17.7209 13.3567 17.2146 13.6419C17.1809 13.6419 17.1809 13.6775 17.1471 13.6775C16.4383 14.1054 15.9995 14.9967 15.6957 16.5655C15.4595 17.7777 14.6494 18.5264 13.2317 18.8116C11.3753 19.1682 9.45139 18.0273 8.60756 19.0612C8.27003 19.4891 8 19.9882 8 20.7369C8 22.5553 9.55265 25.7997 10.2952 27.3685L10.464 27.832ZM20.2524 22.4839C21.0963 22.0561 23.1552 21.1291 23.1552 21.1291C24.6066 20.4874 26.1255 19.8099 27.5769 19.0612C28.7582 18.4195 29.7371 17.849 30.5472 17.2785C31.6948 16.4585 32.4711 15.7098 32.9099 15.068C32.9774 15.1393 33.0111 15.2463 33.0786 15.3533C33.2137 15.6028 33.2137 15.8524 33.1461 16.1376C32.7749 17.3855 30.8172 18.9186 29.1295 19.7743C27.9819 20.3804 25.9567 21.343 23.8303 22.377L23.729 22.4483C21.9738 23.304 20.1849 24.1597 18.6998 24.9084C17.991 25.2649 17.3496 25.5858 16.7758 25.9067L16.1683 26.2276C14.2106 27.2615 12.793 28.0102 12.2192 27.7963C12.1516 27.7607 11.9829 27.725 11.7466 27.2259L11.4766 26.7267C13.0967 25.9423 17.9234 23.6605 20.2524 22.4839Z" fill="white"/>
<path d="M23.56 27.1189L24.0325 28.1885C24.235 28.6163 24.6738 28.7589 25.0789 28.5806L37.23 22.4483C37.635 22.2343 37.7701 21.7708 37.6013 21.343L37.1288 20.2734C36.9262 19.8456 36.4874 19.7029 36.0824 19.8812L23.9312 26.0136C23.56 26.2275 23.3912 26.7267 23.56 27.1189Z" fill="white"/>
<path d="M39.2216 31.7182H35.5425L32.9435 25.978L30.3783 27.2616L32.4034 31.7182H9.14748C8.67493 31.7182 8.3374 32.1104 8.3374 32.5739V33.1444C8.3374 33.6079 8.70869 34 9.14748 34H39.1878C39.6266 34 39.9979 33.6079 39.9979 33.1444V32.5739C40.0317 32.1104 39.6604 31.7182 39.2216 31.7182Z" fill="white"/>
</svg>
