<svg width="24" height="24" viewBox="0 0 24 24" fill="none" xmlns="http://www.w3.org/2000/svg">
<path d="M4.66657 14.6667H9.41857L6.69857 23.1293C6.6023 23.4288 6.72817 23.7547 7.00097 23.9112C7.10497 23.9712 7.21937 24 7.33297 24C7.51697 24 7.69857 23.9237 7.8287 23.7792L19.8287 10.4459C20.0047 10.2501 20.0492 9.96907 19.9423 9.7288C19.8351 9.48827 19.5964 9.33333 19.3332 9.33333H14.0108L17.6127 0.929333C17.701 0.723467 17.6799 0.486667 17.5564 0.299733C17.433 0.112533 17.2242 0 16.9999 0H8.33323C8.03323 0 7.77003 0.200533 7.69057 0.489867L4.0239 13.8232C3.9687 14.0237 4.0103 14.2387 4.13643 14.4043C4.2623 14.5696 4.45857 14.6667 4.66657 14.6667ZM8.84123 1.33333H15.989L12.3871 9.73733C12.2988 9.9432 12.3199 10.18 12.4434 10.3669C12.5668 10.5541 12.7756 10.6667 12.9999 10.6667H17.8364L8.9207 20.5728L10.9679 14.204C11.0332 14.0011 10.9975 13.7795 10.8722 13.6072C10.7468 13.4349 10.5463 13.3333 10.3332 13.3333H5.54123L8.84123 1.33333Z" fill="white"/>
</svg>
