<svg width="48" height="48" viewBox="0 0 48 48" fill="none" xmlns="http://www.w3.org/2000/svg">
<circle cx="24" cy="24" r="24" fill="#124A9D"/>
<path d="M16.4043 29.3594C16.2995 29.3594 16.1926 29.3521 16.0854 29.3368C15.4051 29.2412 14.7742 28.8506 14.3538 28.2654C13.6071 27.2275 13.8706 25.7758 14.9539 24.9618C15.1285 24.8311 15.3762 24.8659 15.5075 25.0404C15.6382 25.2147 15.6031 25.4627 15.4286 25.594C14.6922 26.1469 14.5018 27.1181 14.9957 27.8045C15.2906 28.2148 15.728 28.4881 16.1957 28.5542C16.5585 28.6045 16.9006 28.5222 17.1574 28.3193C17.3006 28.2072 17.4155 28.064 17.5001 27.894C17.5973 27.6978 17.8343 27.6186 18.0296 27.7155C18.2252 27.8124 18.305 28.05 18.2078 28.245C18.0707 28.5216 17.8816 28.7556 17.6461 28.9402C17.2982 29.215 16.8659 29.3594 16.4043 29.3594Z" fill="white"/>
<path d="M19.8673 28.0509C19.7588 27.862 19.5176 27.7965 19.3278 27.905C19.1386 28.0135 19.0731 28.2553 19.1818 28.4448C19.6982 29.3441 19.4825 30.178 19.1081 30.6593C18.6728 31.2192 17.9611 31.4431 17.2525 31.2445C16.8175 31.1227 16.2621 30.7352 16.1272 30.3522C16.0799 30.2182 15.9639 30.1195 15.8237 30.0945C15.6836 30.0683 15.5404 30.1219 15.4496 30.2319C14.8537 30.9518 14.0352 31.3655 13.2638 31.3518C12.6968 31.3374 12.2183 31.0907 11.8801 30.6364C10.95 29.3923 11.867 28.1649 12.4958 27.544C12.546 27.494 12.5823 27.4584 12.614 27.3938C12.6713 27.2768 12.6664 27.1388 12.6018 27.0252C12.5369 26.9119 12.4208 26.8378 12.2908 26.8272C11.5505 26.7665 10.9409 26.4476 10.6186 25.9519C10.3447 25.5306 10.3017 25.0157 10.4943 24.4625C10.7039 23.862 11.071 23.4605 11.5858 23.2677C12.0979 23.0764 12.6597 23.1422 12.9497 23.3082C12.9628 23.3155 12.9774 23.3158 12.9908 23.3216C12.879 23.8319 12.9028 24.3726 13.0746 24.8811C13.1301 25.0459 13.2842 25.1498 13.449 25.1498C13.4914 25.1498 13.5337 25.1434 13.5757 25.1291C13.7826 25.0593 13.8932 24.8351 13.8234 24.6279C13.6397 24.0847 13.6866 23.4666 13.9492 22.9746C14.1171 22.6605 14.4492 22.2499 15.0789 22.0793C15.7884 21.8876 16.6728 22.1064 17.2306 22.6133C17.5837 22.9347 17.9703 23.5163 17.8079 24.4616C17.7707 24.677 17.9151 24.8814 18.1302 24.9183C18.3492 24.9563 18.5497 24.8104 18.5869 24.5959C18.7614 23.5824 18.4684 22.6706 17.7625 22.0284C17.0039 21.3387 15.8429 21.0517 14.872 21.3164C14.1759 21.5047 13.6059 21.9547 13.2635 22.5831C12.8026 22.3534 12.0461 22.2514 11.3086 22.5271C10.7965 22.7187 10.1104 23.165 9.74819 24.2014C9.62572 24.5524 9.57697 24.9012 9.59343 25.2363C8.9162 25.4895 8.3788 26.032 8.13753 26.7275C7.92214 27.3478 7.96083 28.0122 8.24598 28.599C8.52656 29.1763 9.01369 29.608 9.6181 29.8166C9.87218 29.9035 10.1333 29.947 10.3949 29.947C10.5068 29.947 10.6183 29.9364 10.7294 29.9205C10.7989 30.3318 10.9652 30.7318 11.247 31.1093C11.7287 31.7545 12.4379 32.1213 13.2446 32.1417C13.2678 32.1423 13.2909 32.1423 13.3144 32.1423C14.1464 32.1423 14.9997 31.7749 15.6848 31.1333C16.0348 31.5562 16.5722 31.8742 17.0393 32.0049C18.0623 32.2916 19.0947 31.962 19.7317 31.144C20.4105 30.273 20.4623 29.0876 19.8673 28.0509ZM10.7282 29.1166C10.4443 29.1769 10.1534 29.1644 9.87553 29.0694C9.47157 28.9301 9.14529 28.6407 8.95702 28.2535C8.76449 27.8572 8.73859 27.4078 8.88452 26.9874C9.03623 26.5509 9.35885 26.2036 9.7686 26.0177C9.821 26.1435 9.88132 26.2663 9.95687 26.3824C10.2944 26.9018 10.8346 27.2826 11.4917 27.4782C11.0618 28.0177 10.8129 28.571 10.7282 29.1166Z" fill="white"/>
<path d="M32.2359 26.9868C31.4956 26.2484 30.5987 25.8737 29.5684 25.8737C28.5076 25.8737 27.5949 26.2484 26.8562 26.9868C26.1153 27.7235 25.7408 28.6207 25.7408 29.6543C25.7408 30.7178 26.1153 31.6303 26.8562 32.3678C27.5952 33.1053 28.5076 33.481 29.5687 33.481C30.599 33.481 31.4959 33.1053 32.2362 32.3678C32.9765 31.6303 33.3512 30.7178 33.3512 29.6543C33.3512 28.6207 32.9762 27.7244 32.2359 26.9868ZM30.6913 30.7769C30.3797 31.0889 30.0037 31.2452 29.5678 31.2452C29.1312 31.2452 28.7587 31.0889 28.4452 30.7769C28.1332 30.4656 27.9794 30.0918 27.9794 29.654C27.9794 29.2205 28.1332 28.844 28.4452 28.5317C28.7584 28.2225 29.1312 28.0641 29.5678 28.0641C30.0037 28.0641 30.3794 28.2228 30.6913 28.5317C31.003 28.8437 31.1587 29.2205 31.1587 29.654C31.1587 30.0912 31.0033 30.4656 30.6913 30.7769Z" fill="white"/>
<path d="M38 16.1605V14H30.0688C29.6256 14 28.0171 13.9994 26.9557 15.0178C25.9912 15.9446 25.6722 16.871 25.2408 17.8108L21.7252 25.5189L17.2253 25.5217L17.2009 27.0038L21.0492 27.0014L20.9143 27.2978C20.7452 28.1444 21.1266 28.864 22.0652 28.9008H24.2925C24.3811 27.6603 24.9572 26.5953 26.0207 25.7081C27.0867 24.8207 28.2666 24.3805 29.5683 24.3805C30.8695 24.3805 32.0442 24.8207 33.0943 25.7081C34.142 26.5953 34.7126 27.6603 34.8003 28.9008H38V20.52H35.6396V16.1605H38ZM33.9976 20.52H29.9086C29.349 20.52 29.0894 20.0326 29.2564 19.6L30.266 16.8853C30.3735 16.4265 30.7436 16.1605 31.2378 16.1605H33.9972V20.52H33.9976Z" fill="white"/>
</svg>
