<svg width="24" height="272" viewBox="0 0 24 272" fill="none" xmlns="http://www.w3.org/2000/svg">
<line x1="13" y1="24" x2="13" y2="262" stroke="#11365F" stroke-width="2"/>
<circle cx="12" cy="84" r="12" fill="#11365F"/>
<circle cx="12" cy="12" r="12" fill="#11365F"/>
<circle cx="12" cy="260" r="12" fill="#11365F"/>
<path d="M11.6667 252C10.1638 252 8.72243 252.626 7.65973 253.739C6.59702 254.852 6 256.363 6 257.937C6 261.1 11.0794 266.708 11.2958 266.946C11.3438 266.998 11.4014 267.04 11.4652 267.068C11.5289 267.096 11.5974 267.111 11.6667 267.111C11.7359 267.111 11.8044 267.096 11.8682 267.068C11.9319 267.04 11.9895 266.998 12.0376 266.946C12.2539 266.708 17.3333 261.1 17.3333 257.937C17.3333 256.363 16.7363 254.852 15.6736 253.739C14.6109 252.626 13.1696 252 11.6667 252ZM11.6667 265.78C10.0903 263.972 7.0303 260.026 7.0303 257.937C7.0303 256.649 7.51878 255.413 8.38826 254.502C9.25775 253.591 10.437 253.08 11.6667 253.08C12.8963 253.08 14.0756 253.591 14.9451 254.502C15.8146 255.413 16.303 256.649 16.303 257.937C16.303 260.021 13.243 263.972 11.6667 265.78ZM11.6667 255.239C11.1572 255.239 10.6592 255.397 10.2357 255.693C9.81207 255.99 9.48193 256.411 9.28698 256.905C9.09202 257.398 9.04101 257.94 9.1404 258.464C9.23979 258.987 9.4851 259.468 9.84533 259.846C10.2056 260.223 10.6645 260.48 11.1642 260.584C11.6638 260.688 12.1817 260.635 12.6524 260.431C13.123 260.226 13.5253 259.881 13.8083 259.437C14.0914 258.993 14.2424 258.471 14.2424 257.937C14.2424 257.222 13.971 256.535 13.488 256.029C13.005 255.523 12.3498 255.239 11.6667 255.239ZM11.6667 259.557C11.361 259.557 11.0622 259.462 10.8081 259.284C10.5539 259.106 10.3558 258.853 10.2389 258.557C10.1219 258.261 10.0913 257.936 10.1509 257.621C10.2105 257.307 10.3577 257.019 10.5739 256.792C10.79 256.566 11.0654 256.412 11.3652 256.349C11.665 256.287 11.9757 256.319 12.2581 256.441C12.5405 256.564 12.7818 256.771 12.9517 257.038C13.1215 257.304 13.2121 257.617 13.2121 257.937C13.2121 258.367 13.0493 258.779 12.7595 259.082C12.4696 259.386 12.0765 259.557 11.6667 259.557Z" fill="white"/>
<path fill-rule="evenodd" clip-rule="evenodd" d="M11.6667 265.78C10.0903 263.972 7.0303 260.026 7.0303 257.937C7.0303 256.649 7.51878 255.413 8.38826 254.502C9.25775 253.591 10.437 253.08 11.6667 253.08C12.8963 253.08 14.0756 253.591 14.9451 254.502C15.8146 255.413 16.303 256.649 16.303 257.937C16.303 260.021 13.243 263.972 11.6667 265.78ZM10.2357 255.693C10.6592 255.397 11.1572 255.239 11.6667 255.239C12.3498 255.239 13.005 255.523 13.488 256.029C13.971 256.535 14.2424 257.222 14.2424 257.937C14.2424 258.471 14.0914 258.993 13.8083 259.437C13.5253 259.881 13.123 260.226 12.6524 260.431C12.1817 260.635 11.6638 260.688 11.1642 260.584C10.6645 260.48 10.2056 260.223 9.84533 259.846C9.4851 259.468 9.23979 258.987 9.1404 258.464C9.04101 257.94 9.09202 257.398 9.28698 256.905C9.48193 256.411 9.81207 255.99 10.2357 255.693Z" fill="white"/>
<circle cx="12" cy="169" r="12" fill="#FA9336"/>
<path d="M12.3995 162L12.3649 162C11.1815 162.009 10.077 162.47 9.25483 163.297C8.43364 164.123 7.98809 165.221 8.00024 166.388C8.01034 167.497 8.44569 168.55 9.2261 169.353C9.83489 169.972 10.2465 170.794 10.3846 171.665C10.4263 171.953 10.6841 172.168 10.9843 172.168H11.6703C11.7651 172.037 11.8944 171.485 11.2437 169.19C10.8505 167.803 10.3635 166.465 10.3587 166.451C10.3326 166.38 10.3701 166.301 10.4425 166.275C10.5149 166.249 10.5947 166.286 10.6208 166.358C10.6257 166.372 11.1157 167.718 11.5116 169.114C12.0522 171.02 12.083 171.813 11.9728 172.168H12.814C12.7042 171.813 12.7353 171.02 13.2755 169.114C13.6711 167.718 14.1605 166.372 14.1655 166.358C14.1915 166.287 14.2713 166.249 14.3437 166.275C14.4161 166.301 14.4537 166.38 14.4276 166.451C14.4227 166.465 13.9363 167.803 13.5435 169.19C12.8934 171.484 13.0218 172.036 13.1162 172.168H13.7997C14.1035 172.168 14.3576 171.955 14.4039 171.661C14.5379 170.788 14.9355 169.991 15.5539 169.355C16.35 168.542 16.7882 167.473 16.7882 166.343C16.7883 163.948 14.8195 162 12.3995 162ZM15.4983 166.21C15.4213 166.21 15.3589 166.149 15.3589 166.073C15.3589 165.399 15.0929 164.768 14.61 164.294C14.1286 163.822 13.4898 163.565 12.8118 163.569C12.8115 163.569 12.8111 163.569 12.8108 163.569C12.7343 163.569 12.6721 163.508 12.6715 163.433C12.6709 163.357 12.7328 163.294 12.8098 163.294C12.8168 163.294 12.8239 163.294 12.8308 163.294C13.576 163.294 14.2768 163.579 14.8063 164.099C15.3424 164.625 15.6376 165.326 15.6376 166.073C15.6376 166.149 15.5752 166.21 15.4983 166.21Z" fill="white"/>
<path d="M11.2839 174.835C11.3388 175.037 11.5242 175.178 11.7347 175.178H13.0493C13.2629 175.178 13.4451 175.04 13.5027 174.833L13.5873 174.525H11.2004L11.2839 174.835Z" fill="white"/>
<path d="M13.9711 172.644H10.8108C10.6019 172.644 10.4319 172.812 10.4319 173.018V173.55C10.4319 173.901 10.6839 174.194 11.0321 174.25H13.7568C14.0969 174.196 14.3525 173.899 14.3525 173.554V173.023C14.3524 172.813 14.185 172.647 13.9711 172.644Z" fill="white"/>
</svg>
