<svg width="24" height="24" viewBox="0 0 24 24" fill="none" xmlns="http://www.w3.org/2000/svg">
<path d="M12.5 0.666748C10.2457 0.666748 8.08365 1.60506 6.48959 3.27526C4.89553 4.94547 4 7.21075 4 9.57277C4 14.3173 11.6191 22.7294 11.9436 23.0856C12.0157 23.164 12.1021 23.2263 12.1977 23.2689C12.2933 23.3115 12.3961 23.3334 12.5 23.3334C12.6039 23.3334 12.7067 23.3115 12.8023 23.2689C12.8979 23.2263 12.9843 23.164 13.0564 23.0856C13.3809 22.7294 21 14.3173 21 9.57277C21 7.21075 20.1045 4.94547 18.5104 3.27526C16.9163 1.60506 14.7543 0.666748 12.5 0.666748ZM12.5 21.3368C10.1355 18.6245 5.54545 12.7061 5.54545 9.57277C5.54545 7.64021 6.27816 5.7868 7.58239 4.42026C8.88662 3.05373 10.6555 2.28603 12.5 2.28603C14.3445 2.28603 16.1134 3.05373 17.4176 4.42026C18.7218 5.7868 19.4545 7.64021 19.4545 9.57277C19.4545 12.698 14.8645 18.6245 12.5 21.3368ZM12.5 5.52458C11.7358 5.52458 10.9889 5.762 10.3535 6.20682C9.71811 6.65165 9.22289 7.28389 8.93046 8.0236C8.63804 8.76331 8.56152 9.57726 8.7106 10.3625C8.85968 11.1478 9.22766 11.8691 9.768 12.4353C10.3083 13.0014 10.9968 13.387 11.7462 13.5432C12.4957 13.6994 13.2726 13.6192 13.9785 13.3128C14.6845 13.0064 15.288 12.4876 15.7125 11.8218C16.137 11.1561 16.3636 10.3734 16.3636 9.57277C16.3636 8.49913 15.9566 7.46945 15.232 6.71027C14.5074 5.95109 13.5247 5.52458 12.5 5.52458ZM12.5 12.0017C12.0415 12.0017 11.5933 11.8592 11.2121 11.5923C10.8309 11.3255 10.5337 10.9461 10.3583 10.5023C10.1828 10.0585 10.1369 9.57008 10.2264 9.09892C10.3158 8.62775 10.5366 8.19496 10.8608 7.85527C11.185 7.51558 11.5981 7.28425 12.0477 7.19053C12.4974 7.09681 12.9635 7.14491 13.3871 7.32875C13.8107 7.51259 14.1728 7.82391 14.4275 8.22334C14.6822 8.62277 14.8182 9.09238 14.8182 9.57277C14.8182 10.217 14.5739 10.8348 14.1392 11.2903C13.7045 11.7458 13.1148 12.0017 12.5 12.0017Z" fill="#C6C6C6" fill-opacity="0.5"/>
</svg>
