<svg width="343" height="77" viewBox="0 0 343 77" fill="none" xmlns="http://www.w3.org/2000/svg">
<path d="M7.5093 71.168C6.88396 71.168 6.33796 71.0233 5.8713 70.734C5.40463 70.4353 5.0453 70.0387 4.7933 69.544C4.55063 69.04 4.36863 68.5033 4.2473 67.934C4.1353 67.3647 4.0793 66.7533 4.0793 66.1C4.0793 65.5027 4.13063 64.9333 4.2333 64.392C4.33596 63.8413 4.50863 63.3047 4.7513 62.782C4.99396 62.25 5.34863 61.8253 5.8153 61.508C6.2913 61.1907 6.85596 61.032 7.5093 61.032C8.13463 61.032 8.68063 61.1813 9.1473 61.48C9.61396 61.7693 9.96863 62.166 10.2113 62.67C10.4633 63.174 10.6453 63.7107 10.7573 64.28C10.8786 64.8493 10.9393 65.456 10.9393 66.1C10.9393 66.6973 10.8833 67.2713 10.7713 67.822C10.6686 68.3633 10.496 68.9 10.2533 69.432C10.0106 69.9547 9.6513 70.3747 9.1753 70.692C8.70863 71.0093 8.1533 71.168 7.5093 71.168ZM7.5093 70.02C7.9293 70.02 8.28863 69.9033 8.5873 69.67C8.88596 69.4367 9.1053 69.1147 9.2453 68.704C9.39463 68.2933 9.4973 67.8827 9.5533 67.472C9.61863 67.052 9.6513 66.5947 9.6513 66.1C9.6513 65.5773 9.61863 65.0967 9.5533 64.658C9.48796 64.2193 9.37596 63.8087 9.2173 63.426C9.06796 63.034 8.84863 62.726 8.5593 62.502C8.26996 62.278 7.91996 62.166 7.5093 62.166C7.07996 62.166 6.71596 62.2873 6.4173 62.53C6.11863 62.7633 5.89463 63.0853 5.7453 63.496C5.59596 63.8973 5.48863 64.3127 5.4233 64.742C5.3673 65.162 5.3393 65.6147 5.3393 66.1C5.3393 66.6227 5.37196 67.1033 5.4373 67.542C5.50263 67.9713 5.61463 68.382 5.7733 68.774C5.93196 69.166 6.15596 69.474 6.4453 69.698C6.74396 69.9127 7.09863 70.02 7.5093 70.02Z" fill="white"/>
<path d="M312.675 71V63.188H311.037V62.362C312.091 62.362 312.749 61.9747 313.011 61.2H313.893V71H312.675ZM320.179 71.168C319.554 71.168 319.008 71.0233 318.541 70.734C318.075 70.4353 317.715 70.0387 317.463 69.544C317.221 69.04 317.039 68.5033 316.917 67.934C316.805 67.3647 316.749 66.7533 316.749 66.1C316.749 65.5027 316.801 64.9333 316.903 64.392C317.006 63.8413 317.179 63.3047 317.421 62.782C317.664 62.25 318.019 61.8253 318.485 61.508C318.961 61.1907 319.526 61.032 320.179 61.032C320.805 61.032 321.351 61.1813 321.817 61.48C322.284 61.7693 322.639 62.166 322.881 62.67C323.133 63.174 323.315 63.7107 323.427 64.28C323.549 64.8493 323.609 65.456 323.609 66.1C323.609 66.6973 323.553 67.2713 323.441 67.822C323.339 68.3633 323.166 68.9 322.923 69.432C322.681 69.9547 322.321 70.3747 321.845 70.692C321.379 71.0093 320.823 71.168 320.179 71.168ZM320.179 70.02C320.599 70.02 320.959 69.9033 321.257 69.67C321.556 69.4367 321.775 69.1147 321.915 68.704C322.065 68.2933 322.167 67.8827 322.223 67.472C322.289 67.052 322.321 66.5947 322.321 66.1C322.321 65.5773 322.289 65.0967 322.223 64.658C322.158 64.2193 322.046 63.8087 321.887 63.426C321.738 63.034 321.519 62.726 321.229 62.502C320.94 62.278 320.59 62.166 320.179 62.166C319.75 62.166 319.386 62.2873 319.087 62.53C318.789 62.7633 318.565 63.0853 318.415 63.496C318.266 63.8973 318.159 64.3127 318.093 64.742C318.037 65.162 318.009 65.6147 318.009 66.1C318.009 66.6227 318.042 67.1033 318.107 67.542C318.173 67.9713 318.285 68.382 318.443 68.774C318.602 69.166 318.826 69.474 319.115 69.698C319.414 69.9127 319.769 70.02 320.179 70.02ZM329.121 71.168C328.495 71.168 327.949 71.0233 327.483 70.734C327.016 70.4353 326.657 70.0387 326.405 69.544C326.162 69.04 325.98 68.5033 325.859 67.934C325.747 67.3647 325.691 66.7533 325.691 66.1C325.691 65.5027 325.742 64.9333 325.845 64.392C325.947 63.8413 326.12 63.3047 326.363 62.782C326.605 62.25 326.96 61.8253 327.427 61.508C327.903 61.1907 328.467 61.032 329.121 61.032C329.746 61.032 330.292 61.1813 330.759 61.48C331.225 61.7693 331.58 62.166 331.823 62.67C332.075 63.174 332.257 63.7107 332.369 64.28C332.49 64.8493 332.551 65.456 332.551 66.1C332.551 66.6973 332.495 67.2713 332.383 67.822C332.28 68.3633 332.107 68.9 331.865 69.432C331.622 69.9547 331.263 70.3747 330.787 70.692C330.32 71.0093 329.765 71.168 329.121 71.168ZM329.121 70.02C329.541 70.02 329.9 69.9033 330.199 69.67C330.497 69.4367 330.717 69.1147 330.857 68.704C331.006 68.2933 331.109 67.8827 331.165 67.472C331.23 67.052 331.263 66.5947 331.263 66.1C331.263 65.5773 331.23 65.0967 331.165 64.658C331.099 64.2193 330.987 63.8087 330.829 63.426C330.679 63.034 330.46 62.726 330.171 62.502C329.881 62.278 329.531 62.166 329.121 62.166C328.691 62.166 328.327 62.2873 328.029 62.53C327.73 62.7633 327.506 63.0853 327.357 63.496C327.207 63.8973 327.1 64.3127 327.035 64.742C326.979 65.162 326.951 65.6147 326.951 66.1C326.951 66.6227 326.983 67.1033 327.049 67.542C327.114 67.9713 327.226 68.382 327.385 68.774C327.543 69.166 327.767 69.474 328.057 69.698C328.355 69.9127 328.71 70.02 329.121 70.02ZM338.062 71.168C337.437 71.168 336.891 71.0233 336.424 70.734C335.957 70.4353 335.598 70.0387 335.346 69.544C335.103 69.04 334.921 68.5033 334.8 67.934C334.688 67.3647 334.632 66.7533 334.632 66.1C334.632 65.5027 334.683 64.9333 334.786 64.392C334.889 63.8413 335.061 63.3047 335.304 62.782C335.547 62.25 335.901 61.8253 336.368 61.508C336.844 61.1907 337.409 61.032 338.062 61.032C338.687 61.032 339.233 61.1813 339.7 61.48C340.167 61.7693 340.521 62.166 340.764 62.67C341.016 63.174 341.198 63.7107 341.31 64.28C341.431 64.8493 341.492 65.456 341.492 66.1C341.492 66.6973 341.436 67.2713 341.324 67.822C341.221 68.3633 341.049 68.9 340.806 69.432C340.563 69.9547 340.204 70.3747 339.728 70.692C339.261 71.0093 338.706 71.168 338.062 71.168ZM338.062 70.02C338.482 70.02 338.841 69.9033 339.14 69.67C339.439 69.4367 339.658 69.1147 339.798 68.704C339.947 68.2933 340.05 67.8827 340.106 67.472C340.171 67.052 340.204 66.5947 340.204 66.1C340.204 65.5773 340.171 65.0967 340.106 64.658C340.041 64.2193 339.929 63.8087 339.77 63.426C339.621 63.034 339.401 62.726 339.112 62.502C338.823 62.278 338.473 62.166 338.062 62.166C337.633 62.166 337.269 62.2873 336.97 62.53C336.671 62.7633 336.447 63.0853 336.298 63.496C336.149 63.8973 336.041 64.3127 335.976 64.742C335.92 65.162 335.892 65.6147 335.892 66.1C335.892 66.6227 335.925 67.1033 335.99 67.542C336.055 67.9713 336.167 68.382 336.326 68.774C336.485 69.166 336.709 69.474 336.998 69.698C337.297 69.9127 337.651 70.02 338.062 70.02Z" fill="white"/>
<path d="M69.3755 71C69.3755 70.384 69.4642 69.824 69.6415 69.32C69.8188 68.8067 70.0755 68.3587 70.4115 67.976C70.7475 67.5933 71.0835 67.2713 71.4195 67.01C71.7555 66.7487 72.1568 66.4827 72.6235 66.212C73.0528 65.9507 73.3888 65.7313 73.6315 65.554C73.8742 65.3673 74.0982 65.12 74.3035 64.812C74.5182 64.504 74.6255 64.1773 74.6255 63.832C74.6255 63.356 74.4482 62.9593 74.0935 62.642C73.7482 62.3247 73.2862 62.166 72.7075 62.166C71.6248 62.166 70.9295 62.6467 70.6215 63.608L69.5295 63.118C69.7255 62.502 70.1128 62.0027 70.6915 61.62C71.2702 61.228 71.9562 61.032 72.7495 61.032C73.7202 61.032 74.4855 61.2933 75.0455 61.816C75.6055 62.3293 75.8855 63.0107 75.8855 63.86C75.8855 64.196 75.8342 64.5087 75.7315 64.798C75.6288 65.0873 75.5028 65.3347 75.3535 65.54C75.2135 65.7453 75.0082 65.96 74.7375 66.184C74.4668 66.408 74.2242 66.59 74.0095 66.73C73.8042 66.8607 73.5242 67.0333 73.1695 67.248C72.4788 67.6493 71.9328 68.046 71.5315 68.438C71.1395 68.83 70.8922 69.2873 70.7895 69.81H75.9695V71H69.3755ZM81.0418 71.168C80.3138 71.168 79.6791 71.0607 79.1378 70.846C78.5964 70.6313 78.1858 70.3793 77.9058 70.09L78.6338 69.152C79.3151 69.7493 80.1131 70.048 81.0278 70.048C81.7184 70.048 82.2878 69.838 82.7358 69.418C83.1931 68.998 83.4218 68.4753 83.4218 67.85C83.4218 67.234 83.2351 66.7347 82.8618 66.352C82.4978 65.9693 82.0171 65.778 81.4198 65.778C80.5798 65.778 79.9218 66.044 79.4458 66.576L78.2418 66.156L78.8158 61.2H84.0518V62.334H79.8798L79.5018 65.288C80.0618 64.84 80.7478 64.616 81.5598 64.616C82.4931 64.616 83.2491 64.9193 83.8278 65.526C84.4064 66.1327 84.6958 66.8793 84.6958 67.766C84.6958 68.718 84.3551 69.5253 83.6738 70.188C83.0018 70.8413 82.1244 71.168 81.0418 71.168ZM90.1431 71.168C89.5178 71.168 88.9718 71.0233 88.5051 70.734C88.0384 70.4353 87.6791 70.0387 87.4271 69.544C87.1844 69.04 87.0024 68.5033 86.8811 67.934C86.7691 67.3647 86.7131 66.7533 86.7131 66.1C86.7131 65.5027 86.7644 64.9333 86.8671 64.392C86.9698 63.8413 87.1424 63.3047 87.3851 62.782C87.6278 62.25 87.9824 61.8253 88.4491 61.508C88.9251 61.1907 89.4898 61.032 90.1431 61.032C90.7684 61.032 91.3144 61.1813 91.7811 61.48C92.2478 61.7693 92.6024 62.166 92.8451 62.67C93.0971 63.174 93.2791 63.7107 93.3911 64.28C93.5124 64.8493 93.5731 65.456 93.5731 66.1C93.5731 66.6973 93.5171 67.2713 93.4051 67.822C93.3024 68.3633 93.1298 68.9 92.8871 69.432C92.6444 69.9547 92.2851 70.3747 91.8091 70.692C91.3424 71.0093 90.7871 71.168 90.1431 71.168ZM90.1431 70.02C90.5631 70.02 90.9224 69.9033 91.2211 69.67C91.5198 69.4367 91.7391 69.1147 91.8791 68.704C92.0284 68.2933 92.1311 67.8827 92.1871 67.472C92.2524 67.052 92.2851 66.5947 92.2851 66.1C92.2851 65.5773 92.2524 65.0967 92.1871 64.658C92.1218 64.2193 92.0098 63.8087 91.8511 63.426C91.7018 63.034 91.4824 62.726 91.1931 62.502C90.9038 62.278 90.5538 62.166 90.1431 62.166C89.7138 62.166 89.3498 62.2873 89.0511 62.53C88.7524 62.7633 88.5284 63.0853 88.3791 63.496C88.2298 63.8973 88.1224 64.3127 88.0571 64.742C88.0011 65.162 87.9731 65.6147 87.9731 66.1C87.9731 66.6227 88.0058 67.1033 88.0711 67.542C88.1364 67.9713 88.2484 68.382 88.4071 68.774C88.5658 69.166 88.7898 69.474 89.0791 69.698C89.3778 69.9127 89.7324 70.02 90.1431 70.02Z" fill="white"/>
<path d="M160.285 71.168C159.557 71.168 158.922 71.0607 158.381 70.846C157.84 70.6313 157.429 70.3793 157.149 70.09L157.877 69.152C158.558 69.7493 159.356 70.048 160.271 70.048C160.962 70.048 161.531 69.838 161.979 69.418C162.436 68.998 162.665 68.4753 162.665 67.85C162.665 67.234 162.478 66.7347 162.105 66.352C161.741 65.9693 161.26 65.778 160.663 65.778C159.823 65.778 159.165 66.044 158.689 66.576L157.485 66.156L158.059 61.2H163.295V62.334H159.123L158.745 65.288C159.305 64.84 159.991 64.616 160.803 64.616C161.736 64.616 162.492 64.9193 163.071 65.526C163.65 66.1327 163.939 66.8793 163.939 67.766C163.939 68.718 163.598 69.5253 162.917 70.188C162.245 70.8413 161.368 71.168 160.285 71.168ZM169.386 71.168C168.761 71.168 168.215 71.0233 167.748 70.734C167.282 70.4353 166.922 70.0387 166.67 69.544C166.428 69.04 166.246 68.5033 166.124 67.934C166.012 67.3647 165.956 66.7533 165.956 66.1C165.956 65.5027 166.008 64.9333 166.11 64.392C166.213 63.8413 166.386 63.3047 166.628 62.782C166.871 62.25 167.226 61.8253 167.692 61.508C168.168 61.1907 168.733 61.032 169.386 61.032C170.012 61.032 170.558 61.1813 171.024 61.48C171.491 61.7693 171.846 62.166 172.088 62.67C172.34 63.174 172.522 63.7107 172.634 64.28C172.756 64.8493 172.816 65.456 172.816 66.1C172.816 66.6973 172.76 67.2713 172.648 67.822C172.546 68.3633 172.373 68.9 172.13 69.432C171.888 69.9547 171.528 70.3747 171.052 70.692C170.586 71.0093 170.03 71.168 169.386 71.168ZM169.386 70.02C169.806 70.02 170.166 69.9033 170.464 69.67C170.763 69.4367 170.982 69.1147 171.122 68.704C171.272 68.2933 171.374 67.8827 171.43 67.472C171.496 67.052 171.528 66.5947 171.528 66.1C171.528 65.5773 171.496 65.0967 171.43 64.658C171.365 64.2193 171.253 63.8087 171.094 63.426C170.945 63.034 170.726 62.726 170.436 62.502C170.147 62.278 169.797 62.166 169.386 62.166C168.957 62.166 168.593 62.2873 168.294 62.53C167.996 62.7633 167.772 63.0853 167.622 63.496C167.473 63.8973 167.366 64.3127 167.3 64.742C167.244 65.162 167.216 65.6147 167.216 66.1C167.216 66.6227 167.249 67.1033 167.314 67.542C167.38 67.9713 167.492 68.382 167.65 68.774C167.809 69.166 168.033 69.474 168.322 69.698C168.621 69.9127 168.976 70.02 169.386 70.02ZM178.328 71.168C177.702 71.168 177.156 71.0233 176.69 70.734C176.223 70.4353 175.864 70.0387 175.612 69.544C175.369 69.04 175.187 68.5033 175.066 67.934C174.954 67.3647 174.898 66.7533 174.898 66.1C174.898 65.5027 174.949 64.9333 175.052 64.392C175.154 63.8413 175.327 63.3047 175.57 62.782C175.812 62.25 176.167 61.8253 176.634 61.508C177.11 61.1907 177.674 61.032 178.328 61.032C178.953 61.032 179.499 61.1813 179.966 61.48C180.432 61.7693 180.787 62.166 181.03 62.67C181.282 63.174 181.464 63.7107 181.576 64.28C181.697 64.8493 181.758 65.456 181.758 66.1C181.758 66.6973 181.702 67.2713 181.59 67.822C181.487 68.3633 181.314 68.9 181.072 69.432C180.829 69.9547 180.47 70.3747 179.994 70.692C179.527 71.0093 178.972 71.168 178.328 71.168ZM178.328 70.02C178.748 70.02 179.107 69.9033 179.406 69.67C179.704 69.4367 179.924 69.1147 180.064 68.704C180.213 68.2933 180.316 67.8827 180.372 67.472C180.437 67.052 180.47 66.5947 180.47 66.1C180.47 65.5773 180.437 65.0967 180.372 64.658C180.306 64.2193 180.194 63.8087 180.036 63.426C179.886 63.034 179.667 62.726 179.378 62.502C179.088 62.278 178.738 62.166 178.328 62.166C177.898 62.166 177.534 62.2873 177.236 62.53C176.937 62.7633 176.713 63.0853 176.564 63.496C176.414 63.8973 176.307 64.3127 176.242 64.742C176.186 65.162 176.158 65.6147 176.158 66.1C176.158 66.6227 176.19 67.1033 176.256 67.542C176.321 67.9713 176.433 68.382 176.592 68.774C176.75 69.166 176.974 69.474 177.264 69.698C177.562 69.9127 177.917 70.02 178.328 70.02Z" fill="white"/>
<path d="M250.474 71C250.493 69.348 250.726 67.836 251.174 66.464C251.622 65.0827 252.36 63.706 253.386 62.334H248.514V61.2H254.744V62.306C254.156 62.978 253.652 63.7153 253.232 64.518C252.822 65.3113 252.514 66.1 252.308 66.884C252.103 67.668 251.954 68.3913 251.86 69.054C251.767 69.7073 251.72 70.356 251.72 71H250.474ZM259.413 71.168C258.685 71.168 258.05 71.0607 257.509 70.846C256.968 70.6313 256.557 70.3793 256.277 70.09L257.005 69.152C257.686 69.7493 258.484 70.048 259.399 70.048C260.09 70.048 260.659 69.838 261.107 69.418C261.564 68.998 261.793 68.4753 261.793 67.85C261.793 67.234 261.606 66.7347 261.233 66.352C260.869 65.9693 260.388 65.778 259.791 65.778C258.951 65.778 258.293 66.044 257.817 66.576L256.613 66.156L257.187 61.2H262.423V62.334H258.251L257.873 65.288C258.433 64.84 259.119 64.616 259.931 64.616C260.864 64.616 261.62 64.9193 262.199 65.526C262.778 66.1327 263.067 66.8793 263.067 67.766C263.067 68.718 262.726 69.5253 262.045 70.188C261.373 70.8413 260.496 71.168 259.413 71.168ZM268.514 71.168C267.889 71.168 267.343 71.0233 266.876 70.734C266.41 70.4353 266.05 70.0387 265.798 69.544C265.556 69.04 265.374 68.5033 265.252 67.934C265.14 67.3647 265.084 66.7533 265.084 66.1C265.084 65.5027 265.136 64.9333 265.238 64.392C265.341 63.8413 265.514 63.3047 265.756 62.782C265.999 62.25 266.354 61.8253 266.82 61.508C267.296 61.1907 267.861 61.032 268.514 61.032C269.14 61.032 269.686 61.1813 270.152 61.48C270.619 61.7693 270.974 62.166 271.216 62.67C271.468 63.174 271.65 63.7107 271.762 64.28C271.884 64.8493 271.944 65.456 271.944 66.1C271.944 66.6973 271.888 67.2713 271.776 67.822C271.674 68.3633 271.501 68.9 271.258 69.432C271.016 69.9547 270.656 70.3747 270.18 70.692C269.714 71.0093 269.158 71.168 268.514 71.168ZM268.514 70.02C268.934 70.02 269.294 69.9033 269.592 69.67C269.891 69.4367 270.11 69.1147 270.25 68.704C270.4 68.2933 270.502 67.8827 270.558 67.472C270.624 67.052 270.656 66.5947 270.656 66.1C270.656 65.5773 270.624 65.0967 270.558 64.658C270.493 64.2193 270.381 63.8087 270.222 63.426C270.073 63.034 269.854 62.726 269.564 62.502C269.275 62.278 268.925 62.166 268.514 62.166C268.085 62.166 267.721 62.2873 267.422 62.53C267.124 62.7633 266.9 63.0853 266.75 63.496C266.601 63.8973 266.494 64.3127 266.428 64.742C266.372 65.162 266.344 65.6147 266.344 66.1C266.344 66.6227 266.377 67.1033 266.442 67.542C266.508 67.9713 266.62 68.382 266.778 68.774C266.937 69.166 267.161 69.474 267.45 69.698C267.749 69.9127 268.104 70.02 268.514 70.02Z" fill="white"/>
<path d="M59.0623 10.7599C58.9645 10.6237 58.8072 10.5433 58.6395 10.5433H51.7564C51.4664 10.5433 51.2323 10.7774 51.2323 11.0675V16.1172H50.3064V10.4979H50.3378C50.6278 10.4979 50.8619 10.2637 50.8619 9.97366V6.76559C50.8619 6.47554 50.6278 6.2414 50.3378 6.2414H48.3602C49.1149 5.51102 49.3071 4.33333 48.7586 3.3828C48.1122 2.26102 46.6727 1.87661 45.5511 2.52312C45.4428 2.58602 45.317 2.68387 45.1877 2.80269C45.2261 2.63145 45.2506 2.47419 45.2506 2.34839C45.2506 1.05188 44.1954 0 42.9027 0C41.6099 0 40.5547 1.05538 40.5547 2.34839C40.5547 2.47419 40.5792 2.63145 40.6176 2.80269C40.4883 2.68387 40.366 2.58602 40.2542 2.52312C39.7092 2.2086 39.0767 2.12473 38.4723 2.28898C37.8678 2.45323 37.3612 2.84113 37.0467 3.3828C36.4982 4.33333 36.6939 5.50753 37.4451 6.2414H35.4675C35.1775 6.2414 34.9434 6.47554 34.9434 6.76559V9.97366C34.9434 10.2637 35.1775 10.4979 35.4675 10.4979H35.4989V16.1172H34.5241C34.2341 16.1172 34 16.3513 34 16.6414V22.4704C34 22.7605 34.2341 22.9946 34.5241 22.9946H36.2257C36.4807 24.6651 37.9237 25.9511 39.6637 25.9511C41.4037 25.9511 42.8467 24.6651 43.1018 22.9946H51.7529C51.7564 22.9946 51.7634 22.9946 51.7669 22.9946H53.0876C53.3217 24.6895 54.7752 26 56.5327 26C58.2901 26 59.7436 24.6895 59.9777 22.9946H62.4759C62.7659 22.9946 63 22.7605 63 22.4704V16.3234C63 16.2116 62.9651 16.1032 62.8987 16.0159L59.0623 10.7599ZM49.2547 16.1172H43.4267V10.4979H49.2547V16.1172ZM49.8102 9.44946H49.7788H43.4267V7.28979H49.8102V9.44946ZM46.0752 3.43172C46.2778 3.3129 46.5014 3.25699 46.7216 3.25699C47.1723 3.25699 47.609 3.49113 47.8501 3.90699C48.21 4.52903 47.9934 5.32581 47.3749 5.68226C46.9557 5.92339 45.3205 6.10511 43.8914 6.19247C44.6846 5.00081 45.6559 3.67285 46.0752 3.43172ZM42.9027 1.05188C43.6189 1.05188 44.2024 1.63548 44.2024 2.35188C44.2024 2.83414 43.542 4.34032 42.9027 5.62285C42.2633 4.34032 41.6029 2.83414 41.6029 2.35188C41.6029 1.63548 42.1864 1.05188 42.9027 1.05188ZM37.9517 3.90699C38.1264 3.60645 38.4059 3.38978 38.7413 3.30242C38.8531 3.27097 38.9684 3.25699 39.0802 3.25699C39.3073 3.25699 39.5275 3.3164 39.7301 3.43172C40.1494 3.67285 41.1207 4.99731 41.9139 6.19247C40.4848 6.10511 38.8496 5.92339 38.4304 5.68226C37.8084 5.32581 37.5953 4.52903 37.9517 3.90699ZM35.9951 7.28979H42.3786V9.44946H36.0265H35.9951V7.28979ZM36.5506 10.4979H42.3786V16.1172H36.5506V10.4979ZM39.6637 24.9027C38.322 24.9027 37.2284 23.8124 37.2284 22.4704C37.2284 21.1285 38.322 20.0347 39.6637 20.0347C41.0054 20.0347 42.099 21.1285 42.099 22.4704C42.099 23.8124 41.0054 24.9027 39.6637 24.9027ZM51.2288 21.9462H43.1088C43.1053 21.9113 43.0948 21.8798 43.0878 21.8449C43.0808 21.7995 43.0704 21.754 43.0599 21.7086C43.0459 21.6457 43.0284 21.5793 43.011 21.5164C43.0005 21.4745 42.9865 21.4325 42.9725 21.3906C42.9516 21.3277 42.9271 21.2648 42.9027 21.2019C42.8887 21.1634 42.8747 21.125 42.8572 21.0866C42.8293 21.0202 42.7943 20.9538 42.7629 20.8874C42.7454 20.8559 42.7314 20.8245 42.7175 20.793C42.672 20.7091 42.6196 20.6253 42.5672 20.5449C42.5602 20.5379 42.5567 20.5274 42.5533 20.5204C42.4939 20.4296 42.4275 20.3457 42.3611 20.2618C42.3436 20.2409 42.3227 20.2199 42.3052 20.1989C42.2528 20.1395 42.2039 20.0801 42.148 20.0242C42.12 19.9962 42.092 19.9718 42.0641 19.9438C42.0152 19.8984 41.9663 19.8495 41.9139 19.8075C41.8824 19.7796 41.8475 19.7551 41.8125 19.7272C41.7636 19.6887 41.7112 19.6503 41.6588 19.6118C41.6239 19.5874 41.5854 19.5629 41.547 19.5384C41.4946 19.5035 41.4422 19.472 41.3863 19.4406C41.3478 19.4196 41.3059 19.3952 41.2675 19.3742C41.2116 19.3462 41.1557 19.3183 41.0998 19.2938C41.0578 19.2763 41.0159 19.2554 40.974 19.2379C40.9146 19.2134 40.8552 19.1925 40.7958 19.1715C40.7539 19.1575 40.7119 19.1435 40.6665 19.1296C40.6036 19.1121 40.5372 19.0946 40.4708 19.0806C40.4289 19.0702 40.387 19.0597 40.3451 19.0527C40.2717 19.0387 40.1983 19.0282 40.1249 19.0177C40.09 19.0142 40.0516 19.0073 40.0166 19.0038C39.9048 18.9933 39.7895 18.9863 39.6777 18.9863C39.5659 18.9863 39.4506 18.9933 39.3388 19.0038C39.3004 19.0073 39.2654 19.0142 39.2305 19.0177C39.1571 19.0282 39.0802 19.0387 39.0104 19.0527C38.9684 19.0597 38.9265 19.0737 38.8846 19.0806C38.8182 19.0946 38.7553 19.1121 38.6889 19.1296C38.647 19.1435 38.6016 19.1575 38.5596 19.1715C38.5002 19.1925 38.4373 19.2134 38.378 19.2379C38.336 19.2554 38.2941 19.2729 38.2522 19.2938C38.1963 19.3183 38.1369 19.3462 38.081 19.3742C38.039 19.3952 38.0006 19.4161 37.9622 19.4406C37.9063 19.472 37.8539 19.5035 37.8014 19.5384C37.763 19.5629 37.7281 19.5874 37.6896 19.6118C37.6372 19.6503 37.5848 19.6887 37.5359 19.7272C37.501 19.7551 37.4695 19.7796 37.4346 19.8075C37.3822 19.853 37.3333 19.8984 37.2843 19.9438C37.2564 19.9718 37.2284 19.9962 37.2005 20.0242C37.1446 20.0801 37.0957 20.1395 37.0433 20.1989C37.0258 20.2199 37.0048 20.2409 36.9873 20.2618C36.9175 20.3457 36.8546 20.4296 36.7952 20.5204C36.7882 20.5274 36.7847 20.5379 36.7812 20.5449C36.7288 20.6253 36.6764 20.7091 36.631 20.793C36.6135 20.8245 36.5995 20.8559 36.5855 20.8874C36.5506 20.9538 36.5192 21.0167 36.4912 21.0866C36.4737 21.125 36.4598 21.1634 36.4458 21.2019C36.4213 21.2648 36.3969 21.3277 36.3759 21.3941C36.3619 21.436 36.3514 21.478 36.3375 21.5199C36.32 21.5828 36.3025 21.6457 36.2886 21.7121C36.2781 21.7575 36.2711 21.803 36.2606 21.8484C36.2536 21.8833 36.2466 21.9148 36.2396 21.9497H35.0482V17.1656H36.0195H36.023H49.7753C49.7788 17.1656 49.7788 17.1656 49.7788 17.1656H51.2253V21.9462H51.2288ZM58.968 22.5159C58.968 23.8578 57.8743 24.9516 56.5327 24.9516C55.191 24.9516 54.0973 23.8613 54.0973 22.5159V22.4774C54.1183 21.1565 55.2084 20.0801 56.5327 20.0801C56.6165 20.0801 56.6969 20.0836 56.7772 20.0941C56.7877 20.0941 56.7982 20.0976 56.8122 20.0976C56.9624 20.1151 57.1057 20.143 57.2454 20.1884C57.2524 20.1919 57.2594 20.1954 57.2699 20.1954C57.4865 20.2653 57.6927 20.3632 57.8778 20.489C57.8813 20.4925 57.8883 20.496 57.8918 20.4995C58.0141 20.5833 58.1294 20.6777 58.2377 20.7825L58.2412 20.786C58.2936 20.8384 58.346 20.8944 58.3949 20.9503C58.4019 20.9573 58.4089 20.9677 58.4159 20.9782C58.4578 21.0306 58.4998 21.0831 58.5382 21.1355C58.5452 21.146 58.5522 21.1565 58.5592 21.1669C58.5941 21.2194 58.629 21.2753 58.664 21.3312C58.671 21.3452 58.678 21.3591 58.6849 21.3731C58.7129 21.429 58.7443 21.4849 58.7688 21.5409C58.7758 21.5548 58.7793 21.5723 58.7863 21.5863C58.8107 21.6422 58.8317 21.7016 58.8527 21.761C58.8596 21.7785 58.8631 21.796 58.8666 21.8134C58.8841 21.8729 58.9016 21.9288 58.9155 21.9882C58.919 22.0091 58.9225 22.0336 58.926 22.0546C58.9365 22.1105 58.947 22.1664 58.954 22.2258C58.9575 22.2503 58.9575 22.2747 58.9575 22.2992C58.961 22.3551 58.968 22.411 58.968 22.4704V22.5159ZM61.9518 21.9462H59.9707C59.9637 21.9148 59.9567 21.8798 59.9498 21.8484C59.9393 21.803 59.9323 21.7575 59.9218 21.7121C59.9078 21.6492 59.8904 21.5863 59.8694 21.5269C59.8554 21.4849 59.8449 21.443 59.831 21.4011C59.81 21.3382 59.7855 21.2753 59.7611 21.2159C59.7471 21.1774 59.7296 21.139 59.7157 21.1005C59.6877 21.0341 59.6528 20.9712 59.6213 20.9083C59.6039 20.8769 59.5899 20.8454 59.5724 20.814C59.527 20.7336 59.4746 20.6532 59.4222 20.5763C59.4152 20.5659 59.4082 20.5554 59.4012 20.5449C59.3418 20.4575 59.2754 20.3737 59.209 20.2898C59.1916 20.2653 59.1671 20.2444 59.1496 20.2234C59.1007 20.1675 59.0483 20.1116 58.9959 20.0556C58.968 20.0277 58.9365 19.9997 58.9086 19.9753C58.8596 19.9298 58.8107 19.8844 58.7618 19.8425C58.7269 19.8145 58.6954 19.7901 58.6605 19.7621C58.6116 19.7237 58.5592 19.6852 58.5102 19.6503C58.4718 19.6258 58.4369 19.6013 58.3984 19.5769C58.346 19.5454 58.2936 19.5105 58.2412 19.4825C58.2028 19.4616 58.1608 19.4371 58.1189 19.4161C58.063 19.3882 58.0071 19.3602 57.9512 19.3358C57.9093 19.3183 57.8674 19.2973 57.8254 19.2798C57.766 19.2554 57.7101 19.2344 57.6472 19.2169C57.6053 19.203 57.5634 19.189 57.518 19.175C57.4551 19.1575 57.3922 19.1401 57.3258 19.1261C57.2839 19.1156 57.2419 19.1051 57.2 19.0981C57.1266 19.0841 57.0567 19.0737 56.9834 19.0632C56.9484 19.0597 56.91 19.0527 56.8751 19.0492C56.7633 19.0387 56.6514 19.0317 56.5396 19.0317C56.4278 19.0317 56.316 19.0387 56.2042 19.0492C56.1693 19.0527 56.1308 19.0597 56.0959 19.0632C56.0225 19.0737 55.9492 19.0841 55.8793 19.0981C55.8374 19.1051 55.7954 19.1156 55.7535 19.1261C55.6871 19.1401 55.6242 19.1575 55.5613 19.175C55.5194 19.189 55.4775 19.203 55.4355 19.2169C55.3761 19.2379 55.3133 19.2589 55.2539 19.2833C55.2119 19.3008 55.1735 19.3183 55.1316 19.3358C55.0722 19.3637 55.0163 19.3882 54.9569 19.4196C54.9184 19.4406 54.88 19.4581 54.8451 19.479C54.7857 19.5105 54.7298 19.5454 54.6739 19.5804C54.6389 19.6013 54.6075 19.6223 54.5725 19.6468C54.5131 19.6852 54.4572 19.7306 54.4013 19.7726C54.3734 19.7935 54.3454 19.8145 54.321 19.8355C54.2581 19.8879 54.1987 19.9403 54.1428 19.9962C54.1253 20.0137 54.1043 20.0312 54.0869 20.0487C53.8563 20.2793 53.6571 20.5414 53.4964 20.828C53.4929 20.8315 53.4929 20.8349 53.4894 20.8384C53.4405 20.9293 53.3916 21.0237 53.3496 21.118C53.3427 21.1355 53.3357 21.1495 53.3287 21.1669C53.2937 21.2508 53.2588 21.3347 53.2308 21.422C53.2239 21.4465 53.2169 21.471 53.2099 21.4919C53.1854 21.5723 53.1645 21.6527 53.1435 21.7366C53.1365 21.768 53.1295 21.796 53.1225 21.8274C53.1155 21.8659 53.1051 21.9043 53.0981 21.9462H52.277V11.5917H58.3705L61.9518 16.4946V21.9462Z" fill="white"/>
<path d="M61.9518 21.9462H59.9707C59.9637 21.9148 59.9567 21.8798 59.9498 21.8484C59.9393 21.803 59.9323 21.7575 59.9218 21.7121C59.9078 21.6492 59.8904 21.5863 59.8694 21.5269C59.8554 21.4849 59.8449 21.443 59.831 21.4011C59.81 21.3382 59.7855 21.2753 59.7611 21.2159C59.7471 21.1774 59.7296 21.139 59.7157 21.1005C59.6877 21.0341 59.6528 20.9712 59.6213 20.9083C59.6039 20.8769 59.5899 20.8454 59.5724 20.814C59.527 20.7336 59.4746 20.6532 59.4222 20.5763L59.4012 20.5449C59.3418 20.4575 59.2754 20.3737 59.209 20.2898C59.1916 20.2653 59.1671 20.2444 59.1496 20.2234C59.1007 20.1675 59.0483 20.1116 58.9959 20.0556C58.968 20.0277 58.9365 19.9997 58.9086 19.9753C58.8596 19.9298 58.8107 19.8844 58.7618 19.8425C58.7269 19.8145 58.6954 19.7901 58.6605 19.7621C58.6116 19.7237 58.5592 19.6852 58.5102 19.6503C58.4718 19.6258 58.4369 19.6013 58.3984 19.5769C58.346 19.5454 58.2936 19.5105 58.2412 19.4825C58.2028 19.4616 58.1608 19.4371 58.1189 19.4161C58.063 19.3882 58.0071 19.3602 57.9512 19.3358C57.9093 19.3183 57.8674 19.2973 57.8254 19.2798C57.766 19.2554 57.7101 19.2344 57.6472 19.2169C57.6053 19.203 57.5634 19.189 57.518 19.175C57.4551 19.1575 57.3922 19.1401 57.3258 19.1261C57.2839 19.1156 57.2419 19.1051 57.2 19.0981C57.1266 19.0841 57.0567 19.0737 56.9834 19.0632C56.9484 19.0597 56.91 19.0527 56.8751 19.0492C56.7633 19.0387 56.6514 19.0317 56.5396 19.0317C56.4278 19.0317 56.316 19.0387 56.2042 19.0492C56.1693 19.0527 56.1308 19.0597 56.0959 19.0632C56.0225 19.0737 55.9492 19.0841 55.8793 19.0981C55.8374 19.1051 55.7954 19.1156 55.7535 19.1261C55.6871 19.1401 55.6242 19.1575 55.5613 19.175L55.4355 19.2169C55.3761 19.2379 55.3133 19.2589 55.2539 19.2833C55.2119 19.3008 55.1735 19.3183 55.1316 19.3358C55.0722 19.3637 55.0163 19.3882 54.9569 19.4196C54.9184 19.4406 54.88 19.4581 54.8451 19.479C54.7857 19.5105 54.7298 19.5454 54.6739 19.5804C54.6389 19.6013 54.6075 19.6223 54.5725 19.6468C54.5131 19.6852 54.4572 19.7306 54.4013 19.7726C54.3734 19.7935 54.3454 19.8145 54.321 19.8355C54.2581 19.8879 54.1987 19.9403 54.1428 19.9962C54.1253 20.0137 54.1043 20.0312 54.0869 20.0487C53.8563 20.2793 53.6571 20.5414 53.4964 20.828C53.4929 20.8315 53.4929 20.8349 53.4894 20.8384C53.4405 20.9293 53.3916 21.0237 53.3496 21.118C53.3427 21.1355 53.3357 21.1495 53.3287 21.1669C53.2937 21.2508 53.2588 21.3347 53.2308 21.422C53.2239 21.4465 53.2169 21.471 53.2099 21.4919C53.1854 21.5723 53.1645 21.6527 53.1435 21.7366C53.1365 21.768 53.1295 21.796 53.1225 21.8274C53.1155 21.8659 53.1051 21.9043 53.0981 21.9462H52.277V11.5917H58.3705L61.9518 16.4946V21.9462Z" fill="white"/>
<path d="M51.2253 21.9462H43.1088C43.1053 21.9113 43.0948 21.8798 43.0878 21.8449C43.0808 21.7995 43.0704 21.754 43.0599 21.7086C43.0459 21.6457 43.0284 21.5793 43.011 21.5164C43.0005 21.4745 42.9865 21.4325 42.9725 21.3906C42.9516 21.3277 42.9271 21.2648 42.9027 21.2019C42.8887 21.1634 42.8747 21.125 42.8572 21.0866C42.8293 21.0202 42.7943 20.9538 42.7629 20.8874C42.7454 20.8559 42.7314 20.8245 42.7175 20.793C42.672 20.7091 42.6196 20.6253 42.5672 20.5449C42.5602 20.5379 42.5567 20.5274 42.5533 20.5204C42.4939 20.4296 42.4275 20.3457 42.3611 20.2618C42.3436 20.2409 42.3227 20.2199 42.3052 20.1989C42.2528 20.1395 42.2039 20.0801 42.148 20.0242C42.12 19.9962 42.092 19.9718 42.0641 19.9438C42.0152 19.8984 41.9663 19.8495 41.9139 19.8075C41.8824 19.7796 41.8475 19.7551 41.8125 19.7272C41.7636 19.6887 41.7112 19.6503 41.6588 19.6118C41.6239 19.5874 41.5854 19.5629 41.547 19.5384C41.4946 19.5035 41.4422 19.472 41.3863 19.4406C41.3478 19.4196 41.3059 19.3952 41.2675 19.3742C41.2116 19.3462 41.1557 19.3183 41.0998 19.2938C41.0578 19.2763 41.0159 19.2554 40.974 19.2379C40.9146 19.2134 40.8552 19.1925 40.7958 19.1715C40.7539 19.1575 40.7119 19.1435 40.6665 19.1296C40.6036 19.1121 40.5372 19.0946 40.4708 19.0806C40.4289 19.0702 40.387 19.0597 40.3451 19.0527C40.2717 19.0387 40.1983 19.0282 40.1249 19.0177C40.09 19.0142 40.0516 19.0073 40.0166 19.0038C39.9048 18.9933 39.7895 18.9863 39.6777 18.9863C39.5659 18.9863 39.4506 18.9933 39.3388 19.0038C39.3004 19.0073 39.2654 19.0142 39.2305 19.0177C39.1571 19.0282 39.0802 19.0387 39.0104 19.0527C38.9684 19.0597 38.9265 19.0737 38.8846 19.0806C38.8182 19.0946 38.7553 19.1121 38.6889 19.1296C38.647 19.1435 38.6016 19.1575 38.5596 19.1715C38.5002 19.1925 38.4373 19.2134 38.378 19.2379C38.336 19.2554 38.2941 19.2729 38.2522 19.2938C38.1963 19.3183 38.1369 19.3462 38.081 19.3742C38.039 19.3952 38.0006 19.4161 37.9622 19.4406C37.9063 19.472 37.8539 19.5035 37.8014 19.5384C37.763 19.5629 37.7281 19.5874 37.6896 19.6118C37.6372 19.6503 37.5848 19.6887 37.5359 19.7272C37.501 19.7551 37.4695 19.7796 37.4346 19.8075C37.3822 19.853 37.3333 19.8984 37.2843 19.9438C37.2564 19.9718 37.2284 19.9962 37.2005 20.0242C37.1446 20.0801 37.0957 20.1395 37.0433 20.1989C37.0258 20.2199 37.0048 20.2409 36.9873 20.2618C36.9175 20.3457 36.8546 20.4296 36.7952 20.5204C36.7882 20.5274 36.7847 20.5379 36.7812 20.5449C36.7288 20.6253 36.6764 20.7091 36.631 20.793C36.6135 20.8245 36.5995 20.8559 36.5855 20.8874C36.5506 20.9538 36.5192 21.0167 36.4912 21.0866C36.4737 21.125 36.4598 21.1634 36.4458 21.2019C36.4213 21.2648 36.3969 21.3277 36.3759 21.3941C36.3619 21.436 36.3514 21.478 36.3375 21.5199C36.32 21.5828 36.3025 21.6457 36.2886 21.7121C36.2781 21.7575 36.2711 21.803 36.2606 21.8484C36.2536 21.8833 36.2466 21.9148 36.2396 21.9497H35.0482V17.1656H36.0195H36.023H49.7753H49.7788H51.2253V21.9462Z" fill="white"/>
<line opacity="0.5" x1="8" y1="39" x2="325" y2="39" stroke="white" stroke-width="2"/>
<circle cx="82" cy="39" r="8" transform="rotate(-90 82 39)" fill="white"/>
<circle cx="172" cy="39" r="8" transform="rotate(-90 172 39)" fill="white"/>
<circle cx="261" cy="39" r="8" transform="rotate(-90 261 39)" fill="white"/>
<path d="M330.5 27.6665C328.246 27.6665 326.084 28.6048 324.49 30.275C322.896 31.9452 322 34.2105 322 36.5725C322 41.317 329.619 49.7292 329.944 50.0854C330.016 50.1638 330.102 50.2261 330.198 50.2687C330.293 50.3112 330.396 50.3332 330.5 50.3332C330.604 50.3332 330.707 50.3112 330.802 50.2687C330.898 50.2261 330.984 50.1638 331.056 50.0854C331.381 49.7292 339 41.317 339 36.5725C339 34.2105 338.104 31.9452 336.51 30.275C334.916 28.6048 332.754 27.6665 330.5 27.6665ZM330.5 48.3366C328.135 45.6243 323.545 39.7058 323.545 36.5725C323.545 34.64 324.278 32.7866 325.582 31.42C326.887 30.0535 328.656 29.2858 330.5 29.2858C332.344 29.2858 334.113 30.0535 335.418 31.42C336.722 32.7866 337.455 34.64 337.455 36.5725C337.455 39.6977 332.865 45.6243 330.5 48.3366ZM330.5 32.5243C329.736 32.5243 328.989 32.7618 328.353 33.2066C327.718 33.6514 327.223 34.2836 326.93 35.0234C326.638 35.7631 326.562 36.577 326.711 37.3623C326.86 38.1476 327.228 38.8689 327.768 39.435C328.308 40.0012 328.997 40.3867 329.746 40.5429C330.496 40.6991 331.273 40.619 331.979 40.3126C332.685 40.0062 333.288 39.4873 333.712 38.8216C334.137 38.1559 334.364 37.3732 334.364 36.5725C334.364 35.4989 333.957 34.4692 333.232 33.71C332.507 32.9508 331.525 32.5243 330.5 32.5243ZM330.5 39.0014C330.042 39.0014 329.593 38.859 329.212 38.5921C328.831 38.3252 328.534 37.9459 328.358 37.502C328.183 37.0582 328.137 36.5698 328.226 36.0987C328.316 35.6275 328.537 35.1947 328.861 34.855C329.185 34.5153 329.598 34.284 330.048 34.1903C330.497 34.0966 330.964 34.1447 331.387 34.3285C331.811 34.5123 332.173 34.8237 332.427 35.2231C332.682 35.6225 332.818 36.0921 332.818 36.5725C332.818 37.2167 332.574 37.8345 332.139 38.29C331.704 38.7455 331.115 39.0014 330.5 39.0014Z" fill="#FA9336"/>
<path fill-rule="evenodd" clip-rule="evenodd" d="M330.5 48.3366C328.135 45.6243 323.545 39.7058 323.545 36.5725C323.545 34.64 324.278 32.7866 325.582 31.42C326.887 30.0535 328.656 29.2858 330.5 29.2858C332.344 29.2858 334.113 30.0535 335.418 31.42C336.722 32.7866 337.455 34.64 337.455 36.5725C337.455 39.6977 332.865 45.6243 330.5 48.3366ZM328.353 33.2066C328.989 32.7618 329.736 32.5243 330.5 32.5243C331.525 32.5243 332.507 32.9508 333.232 33.71C333.957 34.4692 334.364 35.4989 334.364 36.5725C334.364 37.3732 334.137 38.1559 333.712 38.8216C333.288 39.4873 332.685 40.0062 331.979 40.3126C331.273 40.619 330.496 40.6991 329.746 40.5429C328.997 40.3867 328.308 40.0012 327.768 39.435C327.228 38.8689 326.86 38.1476 326.711 37.3623C326.562 36.577 326.638 35.7631 326.93 35.0234C327.223 34.2836 327.718 33.6514 328.353 33.2066Z" fill="#FA9336"/>
<line x1="8" y1="39" x2="57" y2="39" stroke="#FA9336" stroke-width="2"/>
<circle cx="8" cy="39" r="8" transform="rotate(-90 8 39)" fill="#FA9336"/>
</svg>
