<svg width="26" height="24" viewBox="0 0 26 24" fill="none" xmlns="http://www.w3.org/2000/svg">
<mask id="path-1-outside-1_4_564" maskUnits="userSpaceOnUse" x="0" y="0" width="26" height="23" fill="black">
<rect fill="white" width="26" height="23"/>
<path d="M21.7412 9.90313C21.6602 9.79036 21.5301 9.72386 21.3913 9.72386H15.6949C15.4549 9.72386 15.2612 9.91759 15.2612 10.1576V14.3359H14.4949V9.68626H14.521C14.761 9.68626 14.9547 9.49253 14.9547 9.25253V6.59807C14.9547 6.35807 14.761 6.16434 14.521 6.16434H12.8843C13.5089 5.56 13.668 4.58554 13.214 3.79904C12.679 2.87084 11.4877 2.55277 10.5595 3.08771C10.4699 3.13976 10.3658 3.22072 10.2588 3.31904C10.2906 3.17735 10.3108 3.04723 10.3108 2.94313C10.3108 1.87036 9.43759 1 8.36771 1C7.29783 1 6.42458 1.87325 6.42458 2.94313C6.42458 3.04723 6.44482 3.17735 6.47663 3.31904C6.36964 3.22072 6.26843 3.13976 6.1759 3.08771C5.72482 2.82747 5.20145 2.75807 4.7012 2.89398C4.20096 3.02988 3.78169 3.35084 3.52145 3.79904C3.06747 4.58554 3.2294 5.55711 3.85108 6.16434H2.21446C1.97446 6.16434 1.78072 6.35807 1.78072 6.59807V9.25253C1.78072 9.49253 1.97446 9.68626 2.21446 9.68626H2.24048V14.3359H1.43373C1.19373 14.3359 1 14.5296 1 14.7696V19.5928C1 19.8328 1.19373 20.0265 1.43373 20.0265H2.84193C3.05301 21.4087 4.24723 22.4728 5.68723 22.4728C7.12723 22.4728 8.32145 21.4087 8.53253 20.0265H15.692C15.6949 20.0265 15.7007 20.0265 15.7036 20.0265H16.7966C16.9904 21.4289 18.1933 22.5133 19.6477 22.5133C21.1022 22.5133 22.3051 21.4289 22.4988 20.0265H24.5663C24.8063 20.0265 25 19.8328 25 19.5928V14.5065C25 14.414 24.9711 14.3243 24.9161 14.252L21.7412 9.90313ZM13.6246 14.3359H8.80145V9.68626H13.6246V14.3359ZM14.0843 8.8188H14.0583H8.80145V7.03181H14.0843V8.8188ZM10.9933 3.83952C11.161 3.7412 11.346 3.69494 11.5282 3.69494C11.9012 3.69494 12.2626 3.88867 12.4622 4.23277C12.76 4.74747 12.5807 5.40675 12.0689 5.70169C11.7219 5.9012 10.3687 6.05157 9.18602 6.12386C9.84241 5.13783 10.6463 4.03904 10.9933 3.83952ZM8.36771 1.87036C8.96048 1.87036 9.44337 2.35325 9.44337 2.94602C9.44337 3.34506 8.89687 4.59133 8.36771 5.65253C7.83855 4.59133 7.29205 3.34506 7.29205 2.94602C7.29205 2.35325 7.77494 1.87036 8.36771 1.87036ZM4.27036 4.23277C4.41494 3.9841 4.64627 3.80482 4.92386 3.73253C5.01639 3.70651 5.11181 3.69494 5.20434 3.69494C5.39229 3.69494 5.57446 3.7441 5.74217 3.83952C6.08916 4.03904 6.89301 5.13494 7.5494 6.12386C6.36675 6.05157 5.01349 5.9012 4.66651 5.70169C4.15181 5.40675 3.97542 4.74747 4.27036 4.23277ZM2.65108 7.03181H7.93398V8.8188H2.67711H2.65108V7.03181ZM3.11084 9.68626H7.93398V14.3359H3.11084V9.68626ZM5.68723 21.6053C4.57687 21.6053 3.67181 20.7031 3.67181 19.5928C3.67181 18.4824 4.57687 17.5773 5.68723 17.5773C6.79759 17.5773 7.70265 18.4824 7.70265 19.5928C7.70265 20.7031 6.79759 21.6053 5.68723 21.6053ZM15.2583 19.159H8.53831C8.53542 19.1301 8.52675 19.1041 8.52096 19.0752C8.51518 19.0376 8.50651 19 8.49783 18.9624C8.48627 18.9104 8.47181 18.8554 8.45735 18.8034C8.44867 18.7687 8.43711 18.734 8.42554 18.6993C8.40819 18.6472 8.38795 18.5952 8.36771 18.5431C8.35614 18.5113 8.34458 18.4795 8.33012 18.4477C8.30699 18.3928 8.27807 18.3378 8.25205 18.2829C8.23759 18.2569 8.22602 18.2308 8.21446 18.2048C8.17687 18.1354 8.13349 18.066 8.09012 17.9995C8.08434 17.9937 8.08145 17.9851 8.07855 17.9793C8.0294 17.9041 7.97446 17.8347 7.91952 17.7653C7.90506 17.748 7.88771 17.7306 7.87325 17.7133C7.82988 17.6641 7.7894 17.6149 7.74313 17.5687C7.72 17.5455 7.69687 17.5253 7.67373 17.5022C7.63325 17.4646 7.59277 17.4241 7.5494 17.3894C7.52337 17.3663 7.49446 17.346 7.46554 17.3229C7.42506 17.2911 7.38169 17.2593 7.33831 17.2275C7.3094 17.2072 7.27759 17.187 7.24578 17.1667C7.20241 17.1378 7.15904 17.1118 7.11277 17.0858C7.08096 17.0684 7.04626 17.0482 7.01446 17.0308C6.96819 17.0077 6.92193 16.9846 6.87566 16.9643C6.84096 16.9499 6.80626 16.9325 6.77157 16.9181C6.72241 16.8978 6.67325 16.8805 6.6241 16.8631C6.5894 16.8516 6.5547 16.84 6.51711 16.8284C6.46506 16.814 6.41012 16.7995 6.35518 16.788C6.32048 16.7793 6.28578 16.7706 6.25108 16.7648C6.19036 16.7533 6.12964 16.7446 6.06892 16.7359C6.04 16.733 6.00819 16.7272 5.97928 16.7243C5.88675 16.7157 5.79133 16.7099 5.69879 16.7099C5.60626 16.7099 5.51084 16.7157 5.41831 16.7243C5.38651 16.7272 5.35759 16.733 5.32867 16.7359C5.26795 16.7446 5.20434 16.7533 5.14651 16.7648C5.11181 16.7706 5.07711 16.7822 5.04241 16.788C4.98747 16.7995 4.93542 16.814 4.88048 16.8284C4.84578 16.84 4.80819 16.8516 4.77349 16.8631C4.72434 16.8805 4.67229 16.8978 4.62313 16.9181C4.58843 16.9325 4.55373 16.947 4.51904 16.9643C4.47277 16.9846 4.42361 17.0077 4.37735 17.0308C4.34265 17.0482 4.31084 17.0655 4.27904 17.0858C4.23277 17.1118 4.1894 17.1378 4.14602 17.1667C4.11422 17.187 4.0853 17.2072 4.05349 17.2275C4.01012 17.2593 3.96675 17.2911 3.92627 17.3229C3.89735 17.346 3.87133 17.3663 3.84241 17.3894C3.79904 17.427 3.75855 17.4646 3.71807 17.5022C3.69494 17.5253 3.67181 17.5455 3.64867 17.5687C3.60241 17.6149 3.56193 17.6641 3.51855 17.7133C3.5041 17.7306 3.48675 17.748 3.47229 17.7653C3.41446 17.8347 3.36241 17.9041 3.31325 17.9793C3.30747 17.9851 3.30458 17.9937 3.30169 17.9995C3.25831 18.066 3.21494 18.1354 3.17735 18.2048C3.16289 18.2308 3.15132 18.2569 3.13976 18.2829C3.11084 18.3378 3.08482 18.3899 3.06169 18.4477C3.04723 18.4795 3.03566 18.5113 3.0241 18.5431C3.00386 18.5952 2.98361 18.6472 2.96627 18.7022C2.9547 18.7369 2.94602 18.7716 2.93446 18.8063C2.92 18.8583 2.90554 18.9104 2.89398 18.9653C2.8853 19.0029 2.87952 19.0405 2.87084 19.0781C2.86506 19.107 2.85928 19.133 2.85349 19.1619H1.86747V15.2034H2.67133H2.67422H14.0554C14.0583 15.2034 14.0583 15.2034 14.0583 15.2034H15.2554V19.159H15.2583ZM21.6631 19.6304C21.6631 20.7407 20.7581 21.6458 19.6477 21.6458C18.5373 21.6458 17.6323 20.7436 17.6323 19.6304V19.5986C17.6496 18.5055 18.5518 17.6149 19.6477 17.6149C19.7171 17.6149 19.7836 17.6178 19.8501 17.6265C19.8588 17.6265 19.8675 17.6294 19.879 17.6294C20.0034 17.6439 20.1219 17.667 20.2376 17.7046C20.2434 17.7075 20.2492 17.7104 20.2578 17.7104C20.4371 17.7682 20.6077 17.8492 20.761 17.9533C20.7639 17.9561 20.7696 17.959 20.7725 17.9619C20.8737 18.0313 20.9692 18.1094 21.0588 18.1961L21.0617 18.199C21.1051 18.2424 21.1484 18.2887 21.1889 18.3349C21.1947 18.3407 21.2005 18.3494 21.2063 18.3581C21.241 18.4014 21.2757 18.4448 21.3075 18.4882C21.3133 18.4969 21.319 18.5055 21.3248 18.5142C21.3537 18.5576 21.3826 18.6039 21.4116 18.6501C21.4173 18.6617 21.4231 18.6733 21.4289 18.6848C21.452 18.7311 21.4781 18.7773 21.4983 18.8236C21.5041 18.8352 21.507 18.8496 21.5128 18.8612C21.533 18.9075 21.5504 18.9566 21.5677 19.0058C21.5735 19.0202 21.5764 19.0347 21.5793 19.0492C21.5937 19.0983 21.6082 19.1446 21.6198 19.1937C21.6226 19.2111 21.6255 19.2313 21.6284 19.2487C21.6371 19.2949 21.6458 19.3412 21.6516 19.3904C21.6545 19.4106 21.6545 19.4308 21.6545 19.4511C21.6573 19.4973 21.6631 19.5436 21.6631 19.5928V19.6304ZM24.1325 19.159H22.493C22.4872 19.133 22.4814 19.1041 22.4757 19.0781C22.467 19.0405 22.4612 19.0029 22.4525 18.9653C22.441 18.9133 22.4265 18.8612 22.4092 18.812C22.3976 18.7773 22.3889 18.7427 22.3773 18.708C22.36 18.6559 22.3398 18.6039 22.3195 18.5547C22.308 18.5229 22.2935 18.4911 22.2819 18.4593C22.2588 18.4043 22.2299 18.3523 22.2039 18.3002C22.1894 18.2742 22.1778 18.2482 22.1634 18.2222C22.1258 18.1557 22.0824 18.0892 22.039 18.0255C22.0333 18.0169 22.0275 18.0082 22.0217 17.9995C21.9725 17.9272 21.9176 17.8578 21.8626 17.7884C21.8482 17.7682 21.828 17.7508 21.8135 17.7335C21.773 17.6872 21.7296 17.641 21.6863 17.5947C21.6631 17.5716 21.6371 17.5484 21.614 17.5282C21.5735 17.4906 21.533 17.453 21.4925 17.4183C21.4636 17.3952 21.4376 17.3749 21.4087 17.3518C21.3682 17.32 21.3248 17.2882 21.2843 17.2593C21.2525 17.239 21.2236 17.2188 21.1918 17.1986C21.1484 17.1725 21.1051 17.1436 21.0617 17.1205C21.0299 17.1031 20.9952 17.0829 20.9605 17.0655C20.9142 17.0424 20.868 17.0193 20.8217 16.999C20.787 16.9846 20.7523 16.9672 20.7176 16.9528C20.6684 16.9325 20.6222 16.9152 20.5701 16.9007C20.5354 16.8892 20.5007 16.8776 20.4631 16.866C20.4111 16.8516 20.359 16.8371 20.3041 16.8255C20.2694 16.8169 20.2347 16.8082 20.2 16.8024C20.1393 16.7908 20.0814 16.7822 20.0207 16.7735C19.9918 16.7706 19.96 16.7648 19.9311 16.7619C19.8386 16.7533 19.746 16.7475 19.6535 16.7475C19.561 16.7475 19.4684 16.7533 19.3759 16.7619C19.347 16.7648 19.3152 16.7706 19.2863 16.7735C19.2255 16.7822 19.1648 16.7908 19.107 16.8024C19.0723 16.8082 19.0376 16.8169 19.0029 16.8255C18.948 16.8371 18.8959 16.8516 18.8439 16.866C18.8092 16.8776 18.7745 16.8892 18.7398 16.9007C18.6906 16.9181 18.6386 16.9354 18.5894 16.9557C18.5547 16.9701 18.5229 16.9846 18.4882 16.999C18.439 17.0222 18.3928 17.0424 18.3436 17.0684C18.3118 17.0858 18.28 17.1002 18.2511 17.1176C18.2019 17.1436 18.1557 17.1725 18.1094 17.2014C18.0805 17.2188 18.0545 17.2361 18.0255 17.2564C17.9764 17.2882 17.9301 17.3258 17.8839 17.3605C17.8607 17.3778 17.8376 17.3952 17.8174 17.4125C17.7653 17.4559 17.7161 17.4993 17.6699 17.5455C17.6554 17.56 17.6381 17.5745 17.6236 17.5889C17.4328 17.7798 17.268 17.9966 17.1349 18.2337C17.132 18.2366 17.132 18.2395 17.1292 18.2424C17.0887 18.3176 17.0482 18.3957 17.0135 18.4737C17.0077 18.4882 17.0019 18.4998 16.9961 18.5142C16.9672 18.5836 16.9383 18.653 16.9152 18.7253C16.9094 18.7455 16.9036 18.7658 16.8978 18.7831C16.8776 18.8496 16.8602 18.9161 16.8429 18.9855C16.8371 19.0116 16.8313 19.0347 16.8255 19.0607C16.8198 19.0925 16.8111 19.1243 16.8053 19.159H16.1258V10.5913H21.1687L24.1325 14.6482V19.159Z"/>
</mask>
<path d="M21.7412 9.90313C21.6602 9.79036 21.5301 9.72386 21.3913 9.72386H15.6949C15.4549 9.72386 15.2612 9.91759 15.2612 10.1576V14.3359H14.4949V9.68626H14.521C14.761 9.68626 14.9547 9.49253 14.9547 9.25253V6.59807C14.9547 6.35807 14.761 6.16434 14.521 6.16434H12.8843C13.5089 5.56 13.668 4.58554 13.214 3.79904C12.679 2.87084 11.4877 2.55277 10.5595 3.08771C10.4699 3.13976 10.3658 3.22072 10.2588 3.31904C10.2906 3.17735 10.3108 3.04723 10.3108 2.94313C10.3108 1.87036 9.43759 1 8.36771 1C7.29783 1 6.42458 1.87325 6.42458 2.94313C6.42458 3.04723 6.44482 3.17735 6.47663 3.31904C6.36964 3.22072 6.26843 3.13976 6.1759 3.08771C5.72482 2.82747 5.20145 2.75807 4.7012 2.89398C4.20096 3.02988 3.78169 3.35084 3.52145 3.79904C3.06747 4.58554 3.2294 5.55711 3.85108 6.16434H2.21446C1.97446 6.16434 1.78072 6.35807 1.78072 6.59807V9.25253C1.78072 9.49253 1.97446 9.68626 2.21446 9.68626H2.24048V14.3359H1.43373C1.19373 14.3359 1 14.5296 1 14.7696V19.5928C1 19.8328 1.19373 20.0265 1.43373 20.0265H2.84193C3.05301 21.4087 4.24723 22.4728 5.68723 22.4728C7.12723 22.4728 8.32145 21.4087 8.53253 20.0265H15.692C15.6949 20.0265 15.7007 20.0265 15.7036 20.0265H16.7966C16.9904 21.4289 18.1933 22.5133 19.6477 22.5133C21.1022 22.5133 22.3051 21.4289 22.4988 20.0265H24.5663C24.8063 20.0265 25 19.8328 25 19.5928V14.5065C25 14.414 24.9711 14.3243 24.9161 14.252L21.7412 9.90313ZM13.6246 14.3359H8.80145V9.68626H13.6246V14.3359ZM14.0843 8.8188H14.0583H8.80145V7.03181H14.0843V8.8188ZM10.9933 3.83952C11.161 3.7412 11.346 3.69494 11.5282 3.69494C11.9012 3.69494 12.2626 3.88867 12.4622 4.23277C12.76 4.74747 12.5807 5.40675 12.0689 5.70169C11.7219 5.9012 10.3687 6.05157 9.18602 6.12386C9.84241 5.13783 10.6463 4.03904 10.9933 3.83952ZM8.36771 1.87036C8.96048 1.87036 9.44337 2.35325 9.44337 2.94602C9.44337 3.34506 8.89687 4.59133 8.36771 5.65253C7.83855 4.59133 7.29205 3.34506 7.29205 2.94602C7.29205 2.35325 7.77494 1.87036 8.36771 1.87036ZM4.27036 4.23277C4.41494 3.9841 4.64627 3.80482 4.92386 3.73253C5.01639 3.70651 5.11181 3.69494 5.20434 3.69494C5.39229 3.69494 5.57446 3.7441 5.74217 3.83952C6.08916 4.03904 6.89301 5.13494 7.5494 6.12386C6.36675 6.05157 5.01349 5.9012 4.66651 5.70169C4.15181 5.40675 3.97542 4.74747 4.27036 4.23277ZM2.65108 7.03181H7.93398V8.8188H2.67711H2.65108V7.03181ZM3.11084 9.68626H7.93398V14.3359H3.11084V9.68626ZM5.68723 21.6053C4.57687 21.6053 3.67181 20.7031 3.67181 19.5928C3.67181 18.4824 4.57687 17.5773 5.68723 17.5773C6.79759 17.5773 7.70265 18.4824 7.70265 19.5928C7.70265 20.7031 6.79759 21.6053 5.68723 21.6053ZM15.2583 19.159H8.53831C8.53542 19.1301 8.52675 19.1041 8.52096 19.0752C8.51518 19.0376 8.50651 19 8.49783 18.9624C8.48627 18.9104 8.47181 18.8554 8.45735 18.8034C8.44867 18.7687 8.43711 18.734 8.42554 18.6993C8.40819 18.6472 8.38795 18.5952 8.36771 18.5431C8.35614 18.5113 8.34458 18.4795 8.33012 18.4477C8.30699 18.3928 8.27807 18.3378 8.25205 18.2829C8.23759 18.2569 8.22602 18.2308 8.21446 18.2048C8.17687 18.1354 8.13349 18.066 8.09012 17.9995C8.08434 17.9937 8.08145 17.9851 8.07855 17.9793C8.0294 17.9041 7.97446 17.8347 7.91952 17.7653C7.90506 17.748 7.88771 17.7306 7.87325 17.7133C7.82988 17.6641 7.7894 17.6149 7.74313 17.5687C7.72 17.5455 7.69687 17.5253 7.67373 17.5022C7.63325 17.4646 7.59277 17.4241 7.5494 17.3894C7.52337 17.3663 7.49446 17.346 7.46554 17.3229C7.42506 17.2911 7.38169 17.2593 7.33831 17.2275C7.3094 17.2072 7.27759 17.187 7.24578 17.1667C7.20241 17.1378 7.15904 17.1118 7.11277 17.0858C7.08096 17.0684 7.04626 17.0482 7.01446 17.0308C6.96819 17.0077 6.92193 16.9846 6.87566 16.9643C6.84096 16.9499 6.80626 16.9325 6.77157 16.9181C6.72241 16.8978 6.67325 16.8805 6.6241 16.8631C6.5894 16.8516 6.5547 16.84 6.51711 16.8284C6.46506 16.814 6.41012 16.7995 6.35518 16.788C6.32048 16.7793 6.28578 16.7706 6.25108 16.7648C6.19036 16.7533 6.12964 16.7446 6.06892 16.7359C6.04 16.733 6.00819 16.7272 5.97928 16.7243C5.88675 16.7157 5.79133 16.7099 5.69879 16.7099C5.60626 16.7099 5.51084 16.7157 5.41831 16.7243C5.38651 16.7272 5.35759 16.733 5.32867 16.7359C5.26795 16.7446 5.20434 16.7533 5.14651 16.7648C5.11181 16.7706 5.07711 16.7822 5.04241 16.788C4.98747 16.7995 4.93542 16.814 4.88048 16.8284C4.84578 16.84 4.80819 16.8516 4.77349 16.8631C4.72434 16.8805 4.67229 16.8978 4.62313 16.9181C4.58843 16.9325 4.55373 16.947 4.51904 16.9643C4.47277 16.9846 4.42361 17.0077 4.37735 17.0308C4.34265 17.0482 4.31084 17.0655 4.27904 17.0858C4.23277 17.1118 4.1894 17.1378 4.14602 17.1667C4.11422 17.187 4.0853 17.2072 4.05349 17.2275C4.01012 17.2593 3.96675 17.2911 3.92627 17.3229C3.89735 17.346 3.87133 17.3663 3.84241 17.3894C3.79904 17.427 3.75855 17.4646 3.71807 17.5022C3.69494 17.5253 3.67181 17.5455 3.64867 17.5687C3.60241 17.6149 3.56193 17.6641 3.51855 17.7133C3.5041 17.7306 3.48675 17.748 3.47229 17.7653C3.41446 17.8347 3.36241 17.9041 3.31325 17.9793C3.30747 17.9851 3.30458 17.9937 3.30169 17.9995C3.25831 18.066 3.21494 18.1354 3.17735 18.2048C3.16289 18.2308 3.15132 18.2569 3.13976 18.2829C3.11084 18.3378 3.08482 18.3899 3.06169 18.4477C3.04723 18.4795 3.03566 18.5113 3.0241 18.5431C3.00386 18.5952 2.98361 18.6472 2.96627 18.7022C2.9547 18.7369 2.94602 18.7716 2.93446 18.8063C2.92 18.8583 2.90554 18.9104 2.89398 18.9653C2.8853 19.0029 2.87952 19.0405 2.87084 19.0781C2.86506 19.107 2.85928 19.133 2.85349 19.1619H1.86747V15.2034H2.67133H2.67422H14.0554C14.0583 15.2034 14.0583 15.2034 14.0583 15.2034H15.2554V19.159H15.2583ZM21.6631 19.6304C21.6631 20.7407 20.7581 21.6458 19.6477 21.6458C18.5373 21.6458 17.6323 20.7436 17.6323 19.6304V19.5986C17.6496 18.5055 18.5518 17.6149 19.6477 17.6149C19.7171 17.6149 19.7836 17.6178 19.8501 17.6265C19.8588 17.6265 19.8675 17.6294 19.879 17.6294C20.0034 17.6439 20.1219 17.667 20.2376 17.7046C20.2434 17.7075 20.2492 17.7104 20.2578 17.7104C20.4371 17.7682 20.6077 17.8492 20.761 17.9533C20.7639 17.9561 20.7696 17.959 20.7725 17.9619C20.8737 18.0313 20.9692 18.1094 21.0588 18.1961L21.0617 18.199C21.1051 18.2424 21.1484 18.2887 21.1889 18.3349C21.1947 18.3407 21.2005 18.3494 21.2063 18.3581C21.241 18.4014 21.2757 18.4448 21.3075 18.4882C21.3133 18.4969 21.319 18.5055 21.3248 18.5142C21.3537 18.5576 21.3826 18.6039 21.4116 18.6501C21.4173 18.6617 21.4231 18.6733 21.4289 18.6848C21.452 18.7311 21.4781 18.7773 21.4983 18.8236C21.5041 18.8352 21.507 18.8496 21.5128 18.8612C21.533 18.9075 21.5504 18.9566 21.5677 19.0058C21.5735 19.0202 21.5764 19.0347 21.5793 19.0492C21.5937 19.0983 21.6082 19.1446 21.6198 19.1937C21.6226 19.2111 21.6255 19.2313 21.6284 19.2487C21.6371 19.2949 21.6458 19.3412 21.6516 19.3904C21.6545 19.4106 21.6545 19.4308 21.6545 19.4511C21.6573 19.4973 21.6631 19.5436 21.6631 19.5928V19.6304ZM24.1325 19.159H22.493C22.4872 19.133 22.4814 19.1041 22.4757 19.0781C22.467 19.0405 22.4612 19.0029 22.4525 18.9653C22.441 18.9133 22.4265 18.8612 22.4092 18.812C22.3976 18.7773 22.3889 18.7427 22.3773 18.708C22.36 18.6559 22.3398 18.6039 22.3195 18.5547C22.308 18.5229 22.2935 18.4911 22.2819 18.4593C22.2588 18.4043 22.2299 18.3523 22.2039 18.3002C22.1894 18.2742 22.1778 18.2482 22.1634 18.2222C22.1258 18.1557 22.0824 18.0892 22.039 18.0255C22.0333 18.0169 22.0275 18.0082 22.0217 17.9995C21.9725 17.9272 21.9176 17.8578 21.8626 17.7884C21.8482 17.7682 21.828 17.7508 21.8135 17.7335C21.773 17.6872 21.7296 17.641 21.6863 17.5947C21.6631 17.5716 21.6371 17.5484 21.614 17.5282C21.5735 17.4906 21.533 17.453 21.4925 17.4183C21.4636 17.3952 21.4376 17.3749 21.4087 17.3518C21.3682 17.32 21.3248 17.2882 21.2843 17.2593C21.2525 17.239 21.2236 17.2188 21.1918 17.1986C21.1484 17.1725 21.1051 17.1436 21.0617 17.1205C21.0299 17.1031 20.9952 17.0829 20.9605 17.0655C20.9142 17.0424 20.868 17.0193 20.8217 16.999C20.787 16.9846 20.7523 16.9672 20.7176 16.9528C20.6684 16.9325 20.6222 16.9152 20.5701 16.9007C20.5354 16.8892 20.5007 16.8776 20.4631 16.866C20.4111 16.8516 20.359 16.8371 20.3041 16.8255C20.2694 16.8169 20.2347 16.8082 20.2 16.8024C20.1393 16.7908 20.0814 16.7822 20.0207 16.7735C19.9918 16.7706 19.96 16.7648 19.9311 16.7619C19.8386 16.7533 19.746 16.7475 19.6535 16.7475C19.561 16.7475 19.4684 16.7533 19.3759 16.7619C19.347 16.7648 19.3152 16.7706 19.2863 16.7735C19.2255 16.7822 19.1648 16.7908 19.107 16.8024C19.0723 16.8082 19.0376 16.8169 19.0029 16.8255C18.948 16.8371 18.8959 16.8516 18.8439 16.866C18.8092 16.8776 18.7745 16.8892 18.7398 16.9007C18.6906 16.9181 18.6386 16.9354 18.5894 16.9557C18.5547 16.9701 18.5229 16.9846 18.4882 16.999C18.439 17.0222 18.3928 17.0424 18.3436 17.0684C18.3118 17.0858 18.28 17.1002 18.2511 17.1176C18.2019 17.1436 18.1557 17.1725 18.1094 17.2014C18.0805 17.2188 18.0545 17.2361 18.0255 17.2564C17.9764 17.2882 17.9301 17.3258 17.8839 17.3605C17.8607 17.3778 17.8376 17.3952 17.8174 17.4125C17.7653 17.4559 17.7161 17.4993 17.6699 17.5455C17.6554 17.56 17.6381 17.5745 17.6236 17.5889C17.4328 17.7798 17.268 17.9966 17.1349 18.2337C17.132 18.2366 17.132 18.2395 17.1292 18.2424C17.0887 18.3176 17.0482 18.3957 17.0135 18.4737C17.0077 18.4882 17.0019 18.4998 16.9961 18.5142C16.9672 18.5836 16.9383 18.653 16.9152 18.7253C16.9094 18.7455 16.9036 18.7658 16.8978 18.7831C16.8776 18.8496 16.8602 18.9161 16.8429 18.9855C16.8371 19.0116 16.8313 19.0347 16.8255 19.0607C16.8198 19.0925 16.8111 19.1243 16.8053 19.159H16.1258V10.5913H21.1687L24.1325 14.6482V19.159Z" fill="white"/>
<path d="M21.7412 9.90313C21.6602 9.79036 21.5301 9.72386 21.3913 9.72386H15.6949C15.4549 9.72386 15.2612 9.91759 15.2612 10.1576V14.3359H14.4949V9.68626H14.521C14.761 9.68626 14.9547 9.49253 14.9547 9.25253V6.59807C14.9547 6.35807 14.761 6.16434 14.521 6.16434H12.8843C13.5089 5.56 13.668 4.58554 13.214 3.79904C12.679 2.87084 11.4877 2.55277 10.5595 3.08771C10.4699 3.13976 10.3658 3.22072 10.2588 3.31904C10.2906 3.17735 10.3108 3.04723 10.3108 2.94313C10.3108 1.87036 9.43759 1 8.36771 1C7.29783 1 6.42458 1.87325 6.42458 2.94313C6.42458 3.04723 6.44482 3.17735 6.47663 3.31904C6.36964 3.22072 6.26843 3.13976 6.1759 3.08771C5.72482 2.82747 5.20145 2.75807 4.7012 2.89398C4.20096 3.02988 3.78169 3.35084 3.52145 3.79904C3.06747 4.58554 3.2294 5.55711 3.85108 6.16434H2.21446C1.97446 6.16434 1.78072 6.35807 1.78072 6.59807V9.25253C1.78072 9.49253 1.97446 9.68626 2.21446 9.68626H2.24048V14.3359H1.43373C1.19373 14.3359 1 14.5296 1 14.7696V19.5928C1 19.8328 1.19373 20.0265 1.43373 20.0265H2.84193C3.05301 21.4087 4.24723 22.4728 5.68723 22.4728C7.12723 22.4728 8.32145 21.4087 8.53253 20.0265H15.692C15.6949 20.0265 15.7007 20.0265 15.7036 20.0265H16.7966C16.9904 21.4289 18.1933 22.5133 19.6477 22.5133C21.1022 22.5133 22.3051 21.4289 22.4988 20.0265H24.5663C24.8063 20.0265 25 19.8328 25 19.5928V14.5065C25 14.414 24.9711 14.3243 24.9161 14.252L21.7412 9.90313ZM13.6246 14.3359H8.80145V9.68626H13.6246V14.3359ZM14.0843 8.8188H14.0583H8.80145V7.03181H14.0843V8.8188ZM10.9933 3.83952C11.161 3.7412 11.346 3.69494 11.5282 3.69494C11.9012 3.69494 12.2626 3.88867 12.4622 4.23277C12.76 4.74747 12.5807 5.40675 12.0689 5.70169C11.7219 5.9012 10.3687 6.05157 9.18602 6.12386C9.84241 5.13783 10.6463 4.03904 10.9933 3.83952ZM8.36771 1.87036C8.96048 1.87036 9.44337 2.35325 9.44337 2.94602C9.44337 3.34506 8.89687 4.59133 8.36771 5.65253C7.83855 4.59133 7.29205 3.34506 7.29205 2.94602C7.29205 2.35325 7.77494 1.87036 8.36771 1.87036ZM4.27036 4.23277C4.41494 3.9841 4.64627 3.80482 4.92386 3.73253C5.01639 3.70651 5.11181 3.69494 5.20434 3.69494C5.39229 3.69494 5.57446 3.7441 5.74217 3.83952C6.08916 4.03904 6.89301 5.13494 7.5494 6.12386C6.36675 6.05157 5.01349 5.9012 4.66651 5.70169C4.15181 5.40675 3.97542 4.74747 4.27036 4.23277ZM2.65108 7.03181H7.93398V8.8188H2.67711H2.65108V7.03181ZM3.11084 9.68626H7.93398V14.3359H3.11084V9.68626ZM5.68723 21.6053C4.57687 21.6053 3.67181 20.7031 3.67181 19.5928C3.67181 18.4824 4.57687 17.5773 5.68723 17.5773C6.79759 17.5773 7.70265 18.4824 7.70265 19.5928C7.70265 20.7031 6.79759 21.6053 5.68723 21.6053ZM15.2583 19.159H8.53831C8.53542 19.1301 8.52675 19.1041 8.52096 19.0752C8.51518 19.0376 8.50651 19 8.49783 18.9624C8.48627 18.9104 8.47181 18.8554 8.45735 18.8034C8.44867 18.7687 8.43711 18.734 8.42554 18.6993C8.40819 18.6472 8.38795 18.5952 8.36771 18.5431C8.35614 18.5113 8.34458 18.4795 8.33012 18.4477C8.30699 18.3928 8.27807 18.3378 8.25205 18.2829C8.23759 18.2569 8.22602 18.2308 8.21446 18.2048C8.17687 18.1354 8.13349 18.066 8.09012 17.9995C8.08434 17.9937 8.08145 17.9851 8.07855 17.9793C8.0294 17.9041 7.97446 17.8347 7.91952 17.7653C7.90506 17.748 7.88771 17.7306 7.87325 17.7133C7.82988 17.6641 7.7894 17.6149 7.74313 17.5687C7.72 17.5455 7.69687 17.5253 7.67373 17.5022C7.63325 17.4646 7.59277 17.4241 7.5494 17.3894C7.52337 17.3663 7.49446 17.346 7.46554 17.3229C7.42506 17.2911 7.38169 17.2593 7.33831 17.2275C7.3094 17.2072 7.27759 17.187 7.24578 17.1667C7.20241 17.1378 7.15904 17.1118 7.11277 17.0858C7.08096 17.0684 7.04626 17.0482 7.01446 17.0308C6.96819 17.0077 6.92193 16.9846 6.87566 16.9643C6.84096 16.9499 6.80626 16.9325 6.77157 16.9181C6.72241 16.8978 6.67325 16.8805 6.6241 16.8631C6.5894 16.8516 6.5547 16.84 6.51711 16.8284C6.46506 16.814 6.41012 16.7995 6.35518 16.788C6.32048 16.7793 6.28578 16.7706 6.25108 16.7648C6.19036 16.7533 6.12964 16.7446 6.06892 16.7359C6.04 16.733 6.00819 16.7272 5.97928 16.7243C5.88675 16.7157 5.79133 16.7099 5.69879 16.7099C5.60626 16.7099 5.51084 16.7157 5.41831 16.7243C5.38651 16.7272 5.35759 16.733 5.32867 16.7359C5.26795 16.7446 5.20434 16.7533 5.14651 16.7648C5.11181 16.7706 5.07711 16.7822 5.04241 16.788C4.98747 16.7995 4.93542 16.814 4.88048 16.8284C4.84578 16.84 4.80819 16.8516 4.77349 16.8631C4.72434 16.8805 4.67229 16.8978 4.62313 16.9181C4.58843 16.9325 4.55373 16.947 4.51904 16.9643C4.47277 16.9846 4.42361 17.0077 4.37735 17.0308C4.34265 17.0482 4.31084 17.0655 4.27904 17.0858C4.23277 17.1118 4.1894 17.1378 4.14602 17.1667C4.11422 17.187 4.0853 17.2072 4.05349 17.2275C4.01012 17.2593 3.96675 17.2911 3.92627 17.3229C3.89735 17.346 3.87133 17.3663 3.84241 17.3894C3.79904 17.427 3.75855 17.4646 3.71807 17.5022C3.69494 17.5253 3.67181 17.5455 3.64867 17.5687C3.60241 17.6149 3.56193 17.6641 3.51855 17.7133C3.5041 17.7306 3.48675 17.748 3.47229 17.7653C3.41446 17.8347 3.36241 17.9041 3.31325 17.9793C3.30747 17.9851 3.30458 17.9937 3.30169 17.9995C3.25831 18.066 3.21494 18.1354 3.17735 18.2048C3.16289 18.2308 3.15132 18.2569 3.13976 18.2829C3.11084 18.3378 3.08482 18.3899 3.06169 18.4477C3.04723 18.4795 3.03566 18.5113 3.0241 18.5431C3.00386 18.5952 2.98361 18.6472 2.96627 18.7022C2.9547 18.7369 2.94602 18.7716 2.93446 18.8063C2.92 18.8583 2.90554 18.9104 2.89398 18.9653C2.8853 19.0029 2.87952 19.0405 2.87084 19.0781C2.86506 19.107 2.85928 19.133 2.85349 19.1619H1.86747V15.2034H2.67133H2.67422H14.0554C14.0583 15.2034 14.0583 15.2034 14.0583 15.2034H15.2554V19.159H15.2583ZM21.6631 19.6304C21.6631 20.7407 20.7581 21.6458 19.6477 21.6458C18.5373 21.6458 17.6323 20.7436 17.6323 19.6304V19.5986C17.6496 18.5055 18.5518 17.6149 19.6477 17.6149C19.7171 17.6149 19.7836 17.6178 19.8501 17.6265C19.8588 17.6265 19.8675 17.6294 19.879 17.6294C20.0034 17.6439 20.1219 17.667 20.2376 17.7046C20.2434 17.7075 20.2492 17.7104 20.2578 17.7104C20.4371 17.7682 20.6077 17.8492 20.761 17.9533C20.7639 17.9561 20.7696 17.959 20.7725 17.9619C20.8737 18.0313 20.9692 18.1094 21.0588 18.1961L21.0617 18.199C21.1051 18.2424 21.1484 18.2887 21.1889 18.3349C21.1947 18.3407 21.2005 18.3494 21.2063 18.3581C21.241 18.4014 21.2757 18.4448 21.3075 18.4882C21.3133 18.4969 21.319 18.5055 21.3248 18.5142C21.3537 18.5576 21.3826 18.6039 21.4116 18.6501C21.4173 18.6617 21.4231 18.6733 21.4289 18.6848C21.452 18.7311 21.4781 18.7773 21.4983 18.8236C21.5041 18.8352 21.507 18.8496 21.5128 18.8612C21.533 18.9075 21.5504 18.9566 21.5677 19.0058C21.5735 19.0202 21.5764 19.0347 21.5793 19.0492C21.5937 19.0983 21.6082 19.1446 21.6198 19.1937C21.6226 19.2111 21.6255 19.2313 21.6284 19.2487C21.6371 19.2949 21.6458 19.3412 21.6516 19.3904C21.6545 19.4106 21.6545 19.4308 21.6545 19.4511C21.6573 19.4973 21.6631 19.5436 21.6631 19.5928V19.6304ZM24.1325 19.159H22.493C22.4872 19.133 22.4814 19.1041 22.4757 19.0781C22.467 19.0405 22.4612 19.0029 22.4525 18.9653C22.441 18.9133 22.4265 18.8612 22.4092 18.812C22.3976 18.7773 22.3889 18.7427 22.3773 18.708C22.36 18.6559 22.3398 18.6039 22.3195 18.5547C22.308 18.5229 22.2935 18.4911 22.2819 18.4593C22.2588 18.4043 22.2299 18.3523 22.2039 18.3002C22.1894 18.2742 22.1778 18.2482 22.1634 18.2222C22.1258 18.1557 22.0824 18.0892 22.039 18.0255C22.0333 18.0169 22.0275 18.0082 22.0217 17.9995C21.9725 17.9272 21.9176 17.8578 21.8626 17.7884C21.8482 17.7682 21.828 17.7508 21.8135 17.7335C21.773 17.6872 21.7296 17.641 21.6863 17.5947C21.6631 17.5716 21.6371 17.5484 21.614 17.5282C21.5735 17.4906 21.533 17.453 21.4925 17.4183C21.4636 17.3952 21.4376 17.3749 21.4087 17.3518C21.3682 17.32 21.3248 17.2882 21.2843 17.2593C21.2525 17.239 21.2236 17.2188 21.1918 17.1986C21.1484 17.1725 21.1051 17.1436 21.0617 17.1205C21.0299 17.1031 20.9952 17.0829 20.9605 17.0655C20.9142 17.0424 20.868 17.0193 20.8217 16.999C20.787 16.9846 20.7523 16.9672 20.7176 16.9528C20.6684 16.9325 20.6222 16.9152 20.5701 16.9007C20.5354 16.8892 20.5007 16.8776 20.4631 16.866C20.4111 16.8516 20.359 16.8371 20.3041 16.8255C20.2694 16.8169 20.2347 16.8082 20.2 16.8024C20.1393 16.7908 20.0814 16.7822 20.0207 16.7735C19.9918 16.7706 19.96 16.7648 19.9311 16.7619C19.8386 16.7533 19.746 16.7475 19.6535 16.7475C19.561 16.7475 19.4684 16.7533 19.3759 16.7619C19.347 16.7648 19.3152 16.7706 19.2863 16.7735C19.2255 16.7822 19.1648 16.7908 19.107 16.8024C19.0723 16.8082 19.0376 16.8169 19.0029 16.8255C18.948 16.8371 18.8959 16.8516 18.8439 16.866C18.8092 16.8776 18.7745 16.8892 18.7398 16.9007C18.6906 16.9181 18.6386 16.9354 18.5894 16.9557C18.5547 16.9701 18.5229 16.9846 18.4882 16.999C18.439 17.0222 18.3928 17.0424 18.3436 17.0684C18.3118 17.0858 18.28 17.1002 18.2511 17.1176C18.2019 17.1436 18.1557 17.1725 18.1094 17.2014C18.0805 17.2188 18.0545 17.2361 18.0255 17.2564C17.9764 17.2882 17.9301 17.3258 17.8839 17.3605C17.8607 17.3778 17.8376 17.3952 17.8174 17.4125C17.7653 17.4559 17.7161 17.4993 17.6699 17.5455C17.6554 17.56 17.6381 17.5745 17.6236 17.5889C17.4328 17.7798 17.268 17.9966 17.1349 18.2337C17.132 18.2366 17.132 18.2395 17.1292 18.2424C17.0887 18.3176 17.0482 18.3957 17.0135 18.4737C17.0077 18.4882 17.0019 18.4998 16.9961 18.5142C16.9672 18.5836 16.9383 18.653 16.9152 18.7253C16.9094 18.7455 16.9036 18.7658 16.8978 18.7831C16.8776 18.8496 16.8602 18.9161 16.8429 18.9855C16.8371 19.0116 16.8313 19.0347 16.8255 19.0607C16.8198 19.0925 16.8111 19.1243 16.8053 19.159H16.1258V10.5913H21.1687L24.1325 14.6482V19.159Z" stroke="white" stroke-width="0.4" mask="url(#path-1-outside-1_4_564)"/>
</svg>
