<svg width="48" height="48" viewBox="0 0 48 48" fill="none" xmlns="http://www.w3.org/2000/svg">
<circle cx="24" cy="24" r="24" fill="#124A9D"/>
<path d="M32.6023 18.1279H18.2981L20.1157 16.2653C21.0641 15.2934 21.0641 13.7007 20.1157 12.7289C19.1674 11.757 17.6395 11.757 16.6648 12.7289L10.7113 18.8568C9.76291 19.8286 9.76291 21.3944 10.7113 22.3932L16.6648 28.5211C17.139 29.007 17.7712 29.25 18.3771 29.25C19.0093 29.25 19.6152 29.007 20.0894 28.5211C21.0377 27.5493 21.0377 25.9836 20.0894 24.9847L18.2981 23.1221H30.1524V32.5164C30.1524 33.8932 31.2325 35 32.576 35C33.9195 35 34.9995 33.8932 34.9995 32.5164V20.6385C35.0259 19.2347 33.9458 18.1279 32.6023 18.1279Z" fill="white"/>
</svg>
