<svg width="48" height="48" viewBox="0 0 48 48" fill="none" xmlns="http://www.w3.org/2000/svg">
<circle cx="24" cy="24" r="24" fill="#FBD11B"/>
<path d="M32.9543 12.5033C30.8118 12.0076 28.7363 11.267 26.7707 10.2967C26.0519 9.93667 25.35 9.54 24.6686 9.11667L24.5017 9C23.8203 9.35333 23.1083 9.69667 22.3996 10.0233C20.9133 10.7142 19.3866 11.3186 17.8275 11.8333C16.5888 12.2413 15.3259 12.5752 14.0458 12.8333C13.2588 12.99 12.465 13.1133 11.6609 13.2133C11.4395 13.24 11.2215 13.2633 11 13.2833C11 14.6767 11 16.0633 11.0818 17.4533C11.1431 18.5533 11.2351 19.65 11.3714 20.7433C11.4702 21.5867 11.5996 22.43 11.7529 23.2633C11.8824 23.9733 12.0357 24.6733 12.2095 25.3733C12.3355 25.8767 12.4718 26.3733 12.6217 26.87C13.5688 29.97 15.0645 32.99 17.4357 35.2867C17.8352 35.6736 18.2572 36.0375 18.6997 36.3767C19.31 36.8414 19.9583 37.2561 20.6382 37.6167C21.3293 37.9824 22.0507 38.2901 22.7948 38.5367C23.2139 38.6767 23.6397 38.7933 24.069 38.9C24.2871 38.9533 24.2871 38.9533 24.5051 39C24.8458 38.9267 25.1865 38.8433 25.5272 38.7433C26.1804 38.5463 26.8162 38.2977 27.4283 38C27.9797 37.7373 28.5114 37.4365 29.0193 37.1C29.36 36.8733 29.7007 36.63 30.0073 36.3767C32.5285 34.3767 34.2592 31.55 35.438 28.6133C35.6651 28.0711 35.8661 27.5211 36.041 26.9633C36.2625 26.2967 36.4601 25.63 36.6338 24.9633C36.8655 24.08 37.0597 23.1867 37.2266 22.2967C37.4379 21.16 37.598 20.0133 37.7206 18.8633C37.8808 17.3333 37.9659 15.7933 38 14.2567V13.2933C36.3001 13.1551 34.6134 12.8911 32.9543 12.5033ZM29.4043 21.9267C27.6293 23.67 25.6567 25.7467 23.8476 27.53L23.2003 28.1667L22.4916 27.5967L19.6162 25.29L18.8496 24.6667L20.134 23.14L20.9108 23.7667L23.0606 25.4967C24.6652 23.8967 26.3653 22.1167 27.9734 20.54L28.6888 19.84L30.1197 21.2333L29.4043 21.9267Z" fill="#11365F"/>
</svg>
