<svg width="48" height="48" viewBox="0 0 48 48" fill="none" xmlns="http://www.w3.org/2000/svg">
<circle cx="24" cy="24" r="24" fill="#FBD11B"/>
<path d="M39.6153 19.3436H39.5922C39.0441 19.3395 38.5063 19.2024 38.0304 18.9454C37.5545 18.6884 37.1564 18.3202 36.8743 17.8759C35.8748 16.3393 34.4814 15.0659 32.8231 14.1734V11.0455C32.8231 10.8598 32.7708 10.6775 32.6716 10.5173C32.5723 10.357 32.4297 10.2247 32.2585 10.1338C32.0872 10.0429 31.8934 9.99678 31.697 10.0002C31.5006 10.0036 31.3087 10.0563 31.141 10.1531L26.586 12.7808H18.5498C12.5035 12.7808 7.16493 17.4463 7.00426 23.16C6.94801 25.0945 7.44971 27.0069 8.45558 28.6924C9.46145 30.3778 10.9336 31.7727 12.7141 32.7275V35.0199C12.7141 36.4509 13.9327 37.8504 15.4395 37.9862C15.8594 38.0253 16.2833 37.9809 16.6839 37.8558C17.0845 37.7307 17.453 37.5277 17.7656 37.2598C18.0783 36.992 18.3281 36.6652 18.4991 36.3006C18.6701 35.936 18.7585 35.5415 18.7585 35.1427V34.1201H26.7787V35.0199C26.7787 36.4509 27.9973 37.8504 29.5041 37.9862C29.924 38.0253 30.3479 37.9809 30.7485 37.8558C31.1492 37.7307 31.5176 37.5276 31.8303 37.2598C32.1429 36.992 32.3928 36.6652 32.5638 36.3006C32.7347 35.9359 32.8231 35.5415 32.8231 35.1427V32.7279C34.4814 31.8352 35.8747 30.5617 36.8743 29.025C37.1564 28.5808 37.5545 28.2125 38.0304 27.9555C38.5063 27.6985 39.0441 27.5614 39.5922 27.5574H39.6153C39.7972 27.5574 39.9772 27.5235 40.1452 27.4578C40.3132 27.392 40.4659 27.2956 40.5944 27.174C40.723 27.0525 40.825 26.9082 40.8946 26.7494C40.9642 26.5905 41 26.4203 41 26.2484V20.6525C41 20.3054 40.8541 19.9724 40.5944 19.727C40.3348 19.4815 39.9826 19.3436 39.6153 19.3436ZM23.6743 29.7838V31.4074H21.8634V29.7838C19.7959 29.4471 18.2353 27.9812 18.2353 26.229L20.0462 26.2289L20.0462 26.229C20.0462 27.2676 21.2931 28.1448 22.7689 28.1448C24.2442 28.1448 25.4911 27.2676 25.4911 26.2289C25.4911 25.9027 25.4911 24.9103 22.5703 24.2905C19.694 23.6798 18.2353 22.4657 18.2353 20.6814C18.2353 18.929 19.7959 17.4631 21.8634 17.1264V15.4935H23.6743V17.1264C25.7416 17.4631 27.302 18.929 27.302 20.6814H25.4911L25.4911 20.6814C25.4911 19.6428 24.2441 18.7653 22.7689 18.7653C21.293 18.7653 20.0462 19.6428 20.0462 20.6814C20.0462 21.0077 20.0462 22.0001 22.9673 22.6199C25.8433 23.2306 27.3019 24.4447 27.3019 26.2289C27.3019 27.9812 25.7416 29.4471 23.6743 29.7838Z" fill="#11365F"/>
</svg>
