<svg width="29" height="26" viewBox="0 0 29 26" fill="none" xmlns="http://www.w3.org/2000/svg">
<path d="M25.0623 10.7599C24.9645 10.6237 24.8072 10.5433 24.6395 10.5433H17.7564C17.4664 10.5433 17.2323 10.7774 17.2323 11.0675V16.1172H16.3064V10.4979H16.3378C16.6278 10.4979 16.8619 10.2637 16.8619 9.97366V6.76559C16.8619 6.47554 16.6278 6.2414 16.3378 6.2414H14.3602C15.1149 5.51102 15.3071 4.33333 14.7586 3.3828C14.1122 2.26102 12.6727 1.87661 11.5511 2.52312C11.4428 2.58602 11.317 2.68387 11.1877 2.80269C11.2261 2.63145 11.2506 2.47419 11.2506 2.34839C11.2506 1.05188 10.1954 0 8.90265 0C7.60988 0 6.5547 1.05538 6.5547 2.34839C6.5547 2.47419 6.57916 2.63145 6.61759 2.80269C6.48831 2.68387 6.36602 2.58602 6.25422 2.52312C5.70916 2.2086 5.07675 2.12473 4.47229 2.28898C3.86783 2.45323 3.3612 2.84113 3.04675 3.3828C2.49819 4.33333 2.69386 5.50753 3.44506 6.2414H1.46747C1.17747 6.2414 0.943374 6.47554 0.943374 6.76559V9.97366C0.943374 10.2637 1.17747 10.4979 1.46747 10.4979H1.49892V16.1172H0.524096C0.234096 16.1172 0 16.3513 0 16.6414V22.4704C0 22.7605 0.234096 22.9946 0.524096 22.9946H2.22566C2.48072 24.6651 3.92373 25.9511 5.66373 25.9511C7.40374 25.9511 8.84675 24.6651 9.10181 22.9946H17.7529C17.7564 22.9946 17.7634 22.9946 17.7669 22.9946H19.0876C19.3217 24.6895 20.7752 26 22.5326 26C24.2901 26 25.7436 24.6895 25.9777 22.9946H28.4759C28.7659 22.9946 29 22.7605 29 22.4704V16.3234C29 16.2116 28.9651 16.1032 28.8987 16.0159L25.0623 10.7599ZM15.2547 16.1172H9.42675V10.4979H15.2547V16.1172ZM15.8102 9.44946H15.7788H9.42675V7.28979H15.8102V9.44946ZM12.0752 3.43172C12.2778 3.3129 12.5014 3.25699 12.7216 3.25699C13.1723 3.25699 13.609 3.49113 13.8501 3.90699C14.21 4.52903 13.9934 5.32581 13.3749 5.68226C12.9557 5.92339 11.3205 6.10511 9.89145 6.19247C10.6846 5.00081 11.6559 3.67285 12.0752 3.43172ZM8.90265 1.05188C9.61892 1.05188 10.2024 1.63548 10.2024 2.35188C10.2024 2.83414 9.54205 4.34032 8.90265 5.62285C8.26325 4.34032 7.60289 2.83414 7.60289 2.35188C7.60289 1.63548 8.18639 1.05188 8.90265 1.05188ZM3.95169 3.90699C4.12639 3.60645 4.4059 3.38978 4.74133 3.30242C4.85313 3.27097 4.96843 3.25699 5.08024 3.25699C5.30735 3.25699 5.52747 3.3164 5.73012 3.43172C6.1494 3.67285 7.12072 4.99731 7.91386 6.19247C6.48482 6.10511 4.84964 5.92339 4.43036 5.68226C3.80843 5.32581 3.5953 4.52903 3.95169 3.90699ZM1.99506 7.28979H8.37855V9.44946H2.02651H1.99506V7.28979ZM2.5506 10.4979H8.37855V16.1172H2.5506V10.4979ZM5.66373 24.9027C4.32205 24.9027 3.22843 23.8124 3.22843 22.4704C3.22843 21.1285 4.32205 20.0347 5.66373 20.0347C7.00542 20.0347 8.09904 21.1285 8.09904 22.4704C8.09904 23.8124 7.00542 24.9027 5.66373 24.9027ZM17.2288 21.9462H9.1088C9.1053 21.9113 9.09482 21.8798 9.08783 21.8449C9.08084 21.7995 9.07036 21.754 9.05988 21.7086C9.0459 21.6457 9.02843 21.5793 9.01096 21.5164C9.00048 21.4745 8.98651 21.4325 8.97253 21.3906C8.95157 21.3277 8.92711 21.2648 8.90265 21.2019C8.88867 21.1634 8.8747 21.125 8.85723 21.0866C8.82928 21.0202 8.79434 20.9538 8.76289 20.8874C8.74542 20.8559 8.73145 20.8245 8.71747 20.793C8.67205 20.7091 8.61964 20.6253 8.56723 20.5449C8.56024 20.5379 8.55675 20.5274 8.55325 20.5204C8.49386 20.4296 8.42747 20.3457 8.36108 20.2618C8.34361 20.2409 8.32265 20.2199 8.30518 20.1989C8.25277 20.1395 8.20386 20.0801 8.14795 20.0242C8.12 19.9962 8.09205 19.9718 8.0641 19.9438C8.01518 19.8984 7.96627 19.8495 7.91386 19.8075C7.88241 19.7796 7.84747 19.7551 7.81253 19.7272C7.76361 19.6887 7.71121 19.6503 7.6588 19.6118C7.62386 19.5874 7.58542 19.5629 7.54699 19.5384C7.49458 19.5035 7.44217 19.472 7.38627 19.4406C7.34783 19.4196 7.3059 19.3952 7.26747 19.3742C7.21157 19.3462 7.15566 19.3183 7.09976 19.2938C7.05783 19.2763 7.0159 19.2554 6.97398 19.2379C6.91458 19.2134 6.85518 19.1925 6.79578 19.1715C6.75386 19.1575 6.71193 19.1435 6.66651 19.1296C6.60361 19.1121 6.53723 19.0946 6.47084 19.0806C6.42892 19.0702 6.38699 19.0597 6.34506 19.0527C6.27169 19.0387 6.19831 19.0282 6.12494 19.0177C6.09 19.0142 6.05157 19.0073 6.01663 19.0038C5.90482 18.9933 5.78952 18.9863 5.67771 18.9863C5.5659 18.9863 5.4506 18.9933 5.3388 19.0038C5.30036 19.0073 5.26542 19.0142 5.23048 19.0177C5.15711 19.0282 5.08024 19.0387 5.01036 19.0527C4.96843 19.0597 4.92651 19.0737 4.88458 19.0806C4.81819 19.0946 4.7553 19.1121 4.68892 19.1296C4.64699 19.1435 4.60157 19.1575 4.55964 19.1715C4.50024 19.1925 4.43735 19.2134 4.37795 19.2379C4.33602 19.2554 4.2941 19.2729 4.25217 19.2938C4.19627 19.3183 4.13687 19.3462 4.08096 19.3742C4.03904 19.3952 4.0006 19.4161 3.96217 19.4406C3.90627 19.472 3.85386 19.5035 3.80145 19.5384C3.76301 19.5629 3.72807 19.5874 3.68964 19.6118C3.63723 19.6503 3.58482 19.6887 3.5359 19.7272C3.50096 19.7551 3.46952 19.7796 3.43458 19.8075C3.38217 19.853 3.33325 19.8984 3.28434 19.9438C3.25639 19.9718 3.22843 19.9962 3.20048 20.0242C3.14458 20.0801 3.09566 20.1395 3.04325 20.1989C3.02578 20.2199 3.00482 20.2409 2.98735 20.2618C2.91747 20.3457 2.85458 20.4296 2.79518 20.5204C2.78819 20.5274 2.7847 20.5379 2.7812 20.5449C2.7288 20.6253 2.67639 20.7091 2.63096 20.793C2.61349 20.8245 2.59952 20.8559 2.58554 20.8874C2.5506 20.9538 2.51916 21.0167 2.4912 21.0866C2.47374 21.125 2.45976 21.1634 2.44578 21.2019C2.42133 21.2648 2.39687 21.3277 2.3759 21.3941C2.36193 21.436 2.35145 21.478 2.33747 21.5199C2.32 21.5828 2.30253 21.6457 2.28855 21.7121C2.27807 21.7575 2.27108 21.803 2.2606 21.8484C2.25361 21.8833 2.24663 21.9148 2.23964 21.9497H1.04819V17.1656H2.01952H2.02301H15.7753C15.7788 17.1656 15.7788 17.1656 15.7788 17.1656H17.2253V21.9462H17.2288ZM24.968 22.5159C24.968 23.8578 23.8743 24.9516 22.5326 24.9516C21.191 24.9516 20.0973 23.8613 20.0973 22.5159V22.4774C20.1183 21.1565 21.2084 20.0801 22.5326 20.0801C22.6165 20.0801 22.6969 20.0836 22.7772 20.0941C22.7877 20.0941 22.7982 20.0976 22.8122 20.0976C22.9624 20.1151 23.1057 20.143 23.2454 20.1884C23.2524 20.1919 23.2594 20.1954 23.2699 20.1954C23.4865 20.2653 23.6926 20.3632 23.8778 20.489C23.8813 20.4925 23.8883 20.496 23.8918 20.4995C24.0141 20.5833 24.1294 20.6777 24.2377 20.7825L24.2412 20.786C24.2936 20.8384 24.346 20.8944 24.3949 20.9503C24.4019 20.9573 24.4089 20.9677 24.4159 20.9782C24.4578 21.0306 24.4998 21.0831 24.5382 21.1355C24.5452 21.146 24.5522 21.1565 24.5592 21.1669C24.5941 21.2194 24.629 21.2753 24.664 21.3312C24.671 21.3452 24.678 21.3591 24.6849 21.3731C24.7129 21.429 24.7443 21.4849 24.7688 21.5409C24.7758 21.5548 24.7793 21.5723 24.7863 21.5863C24.8107 21.6422 24.8317 21.7016 24.8526 21.761C24.8596 21.7785 24.8631 21.796 24.8666 21.8134C24.8841 21.8729 24.9016 21.9288 24.9155 21.9882C24.919 22.0091 24.9225 22.0336 24.926 22.0546C24.9365 22.1105 24.947 22.1664 24.954 22.2258C24.9575 22.2503 24.9575 22.2747 24.9575 22.2992C24.961 22.3551 24.968 22.411 24.968 22.4704V22.5159ZM27.9518 21.9462H25.9707C25.9637 21.9148 25.9567 21.8798 25.9498 21.8484C25.9393 21.803 25.9323 21.7575 25.9218 21.7121C25.9078 21.6492 25.8904 21.5863 25.8694 21.5269C25.8554 21.4849 25.8449 21.443 25.831 21.4011C25.81 21.3382 25.7855 21.2753 25.7611 21.2159C25.7471 21.1774 25.7296 21.139 25.7157 21.1005C25.6877 21.0341 25.6528 20.9712 25.6213 20.9083C25.6039 20.8769 25.5899 20.8454 25.5724 20.814C25.527 20.7336 25.4746 20.6532 25.4222 20.5763C25.4152 20.5659 25.4082 20.5554 25.4012 20.5449C25.3418 20.4575 25.2754 20.3737 25.209 20.2898C25.1916 20.2653 25.1671 20.2444 25.1496 20.2234C25.1007 20.1675 25.0483 20.1116 24.9959 20.0556C24.968 20.0277 24.9365 19.9997 24.9086 19.9753C24.8596 19.9298 24.8107 19.8844 24.7618 19.8425C24.7269 19.8145 24.6954 19.7901 24.6605 19.7621C24.6116 19.7237 24.5592 19.6852 24.5102 19.6503C24.4718 19.6258 24.4369 19.6013 24.3984 19.5769C24.346 19.5454 24.2936 19.5105 24.2412 19.4825C24.2028 19.4616 24.1608 19.4371 24.1189 19.4161C24.063 19.3882 24.0071 19.3602 23.9512 19.3358C23.9093 19.3183 23.8674 19.2973 23.8254 19.2798C23.766 19.2554 23.7101 19.2344 23.6472 19.2169C23.6053 19.203 23.5634 19.189 23.518 19.175C23.4551 19.1575 23.3922 19.1401 23.3258 19.1261C23.2839 19.1156 23.2419 19.1051 23.2 19.0981C23.1266 19.0841 23.0567 19.0737 22.9834 19.0632C22.9484 19.0597 22.91 19.0527 22.8751 19.0492C22.7633 19.0387 22.6514 19.0317 22.5396 19.0317C22.4278 19.0317 22.316 19.0387 22.2042 19.0492C22.1693 19.0527 22.1308 19.0597 22.0959 19.0632C22.0225 19.0737 21.9492 19.0841 21.8793 19.0981C21.8374 19.1051 21.7954 19.1156 21.7535 19.1261C21.6871 19.1401 21.6242 19.1575 21.5613 19.175C21.5194 19.189 21.4775 19.203 21.4355 19.2169C21.3761 19.2379 21.3133 19.2589 21.2539 19.2833C21.2119 19.3008 21.1735 19.3183 21.1316 19.3358C21.0722 19.3637 21.0163 19.3882 20.9569 19.4196C20.9184 19.4406 20.88 19.4581 20.8451 19.479C20.7857 19.5105 20.7298 19.5454 20.6739 19.5804C20.6389 19.6013 20.6075 19.6223 20.5725 19.6468C20.5131 19.6852 20.4572 19.7306 20.4013 19.7726C20.3734 19.7935 20.3454 19.8145 20.321 19.8355C20.2581 19.8879 20.1987 19.9403 20.1428 19.9962C20.1253 20.0137 20.1043 20.0312 20.0869 20.0487C19.8563 20.2793 19.6571 20.5414 19.4964 20.828C19.4929 20.8315 19.4929 20.8349 19.4894 20.8384C19.4405 20.9293 19.3916 21.0237 19.3496 21.118C19.3427 21.1355 19.3357 21.1495 19.3287 21.1669C19.2937 21.2508 19.2588 21.3347 19.2308 21.422C19.2239 21.4465 19.2169 21.471 19.2099 21.4919C19.1854 21.5723 19.1645 21.6527 19.1435 21.7366C19.1365 21.768 19.1295 21.796 19.1225 21.8274C19.1155 21.8659 19.1051 21.9043 19.0981 21.9462H18.277V11.5917H24.3705L27.9518 16.4946V21.9462Z" fill="white"/>
<path d="M27.9518 21.9462H25.9707C25.9637 21.9148 25.9567 21.8798 25.9498 21.8484C25.9393 21.803 25.9323 21.7575 25.9218 21.7121C25.9078 21.6492 25.8904 21.5863 25.8694 21.5269C25.8554 21.4849 25.8449 21.443 25.831 21.4011C25.81 21.3382 25.7855 21.2753 25.7611 21.2159C25.7471 21.1774 25.7296 21.139 25.7157 21.1005C25.6877 21.0341 25.6528 20.9712 25.6213 20.9083C25.6039 20.8769 25.5899 20.8454 25.5724 20.814C25.527 20.7336 25.4746 20.6532 25.4222 20.5763L25.4012 20.5449C25.3418 20.4575 25.2754 20.3737 25.209 20.2898C25.1916 20.2653 25.1671 20.2444 25.1496 20.2234C25.1007 20.1675 25.0483 20.1116 24.9959 20.0556C24.968 20.0277 24.9365 19.9997 24.9086 19.9753C24.8596 19.9298 24.8107 19.8844 24.7618 19.8425C24.7269 19.8145 24.6954 19.7901 24.6605 19.7621C24.6116 19.7237 24.5592 19.6852 24.5102 19.6503C24.4718 19.6258 24.4369 19.6013 24.3984 19.5769C24.346 19.5454 24.2936 19.5105 24.2412 19.4825C24.2028 19.4616 24.1608 19.4371 24.1189 19.4161C24.063 19.3882 24.0071 19.3602 23.9512 19.3358C23.9093 19.3183 23.8674 19.2973 23.8254 19.2798C23.766 19.2554 23.7101 19.2344 23.6472 19.2169C23.6053 19.203 23.5634 19.189 23.518 19.175C23.4551 19.1575 23.3922 19.1401 23.3258 19.1261C23.2839 19.1156 23.2419 19.1051 23.2 19.0981C23.1266 19.0841 23.0567 19.0737 22.9834 19.0632C22.9484 19.0597 22.91 19.0527 22.8751 19.0492C22.7633 19.0387 22.6514 19.0317 22.5396 19.0317C22.4278 19.0317 22.316 19.0387 22.2042 19.0492C22.1693 19.0527 22.1308 19.0597 22.0959 19.0632C22.0225 19.0737 21.9492 19.0841 21.8793 19.0981C21.8374 19.1051 21.7954 19.1156 21.7535 19.1261C21.6871 19.1401 21.6242 19.1575 21.5613 19.175L21.4355 19.2169C21.3761 19.2379 21.3133 19.2589 21.2539 19.2833C21.2119 19.3008 21.1735 19.3183 21.1316 19.3358C21.0722 19.3637 21.0163 19.3882 20.9569 19.4196C20.9184 19.4406 20.88 19.4581 20.8451 19.479C20.7857 19.5105 20.7298 19.5454 20.6739 19.5804C20.6389 19.6013 20.6075 19.6223 20.5725 19.6468C20.5131 19.6852 20.4572 19.7306 20.4013 19.7726C20.3734 19.7935 20.3454 19.8145 20.321 19.8355C20.2581 19.8879 20.1987 19.9403 20.1428 19.9962C20.1253 20.0137 20.1043 20.0312 20.0869 20.0487C19.8563 20.2793 19.6571 20.5414 19.4964 20.828C19.4929 20.8315 19.4929 20.8349 19.4894 20.8384C19.4405 20.9293 19.3916 21.0237 19.3496 21.118C19.3427 21.1355 19.3357 21.1495 19.3287 21.1669C19.2937 21.2508 19.2588 21.3347 19.2308 21.422C19.2239 21.4465 19.2169 21.471 19.2099 21.4919C19.1854 21.5723 19.1645 21.6527 19.1435 21.7366C19.1365 21.768 19.1295 21.796 19.1225 21.8274C19.1155 21.8659 19.1051 21.9043 19.0981 21.9462H18.277V11.5917H24.3705L27.9518 16.4946V21.9462Z" fill="white"/>
<path d="M17.2253 21.9462H9.1088C9.1053 21.9113 9.09482 21.8798 9.08783 21.8449C9.08084 21.7995 9.07036 21.754 9.05988 21.7086C9.0459 21.6457 9.02843 21.5793 9.01096 21.5164C9.00048 21.4745 8.98651 21.4325 8.97253 21.3906C8.95157 21.3277 8.92711 21.2648 8.90265 21.2019C8.88867 21.1634 8.8747 21.125 8.85723 21.0866C8.82928 21.0202 8.79434 20.9538 8.76289 20.8874C8.74542 20.8559 8.73145 20.8245 8.71747 20.793C8.67205 20.7091 8.61964 20.6253 8.56723 20.5449C8.56024 20.5379 8.55675 20.5274 8.55325 20.5204C8.49386 20.4296 8.42747 20.3457 8.36108 20.2618C8.34361 20.2409 8.32265 20.2199 8.30518 20.1989C8.25277 20.1395 8.20386 20.0801 8.14795 20.0242C8.12 19.9962 8.09205 19.9718 8.0641 19.9438C8.01518 19.8984 7.96627 19.8495 7.91386 19.8075C7.88241 19.7796 7.84747 19.7551 7.81253 19.7272C7.76361 19.6887 7.71121 19.6503 7.6588 19.6118C7.62386 19.5874 7.58542 19.5629 7.54699 19.5384C7.49458 19.5035 7.44217 19.472 7.38627 19.4406C7.34783 19.4196 7.3059 19.3952 7.26747 19.3742C7.21157 19.3462 7.15566 19.3183 7.09976 19.2938C7.05783 19.2763 7.0159 19.2554 6.97398 19.2379C6.91458 19.2134 6.85518 19.1925 6.79578 19.1715C6.75386 19.1575 6.71193 19.1435 6.66651 19.1296C6.60361 19.1121 6.53723 19.0946 6.47084 19.0806C6.42892 19.0702 6.38699 19.0597 6.34506 19.0527C6.27169 19.0387 6.19831 19.0282 6.12494 19.0177C6.09 19.0142 6.05157 19.0073 6.01663 19.0038C5.90482 18.9933 5.78952 18.9863 5.67771 18.9863C5.5659 18.9863 5.4506 18.9933 5.3388 19.0038C5.30036 19.0073 5.26542 19.0142 5.23048 19.0177C5.15711 19.0282 5.08024 19.0387 5.01036 19.0527C4.96843 19.0597 4.92651 19.0737 4.88458 19.0806C4.81819 19.0946 4.7553 19.1121 4.68892 19.1296C4.64699 19.1435 4.60157 19.1575 4.55964 19.1715C4.50024 19.1925 4.43735 19.2134 4.37795 19.2379C4.33602 19.2554 4.2941 19.2729 4.25217 19.2938C4.19627 19.3183 4.13687 19.3462 4.08096 19.3742C4.03904 19.3952 4.0006 19.4161 3.96217 19.4406C3.90627 19.472 3.85386 19.5035 3.80145 19.5384C3.76301 19.5629 3.72807 19.5874 3.68964 19.6118C3.63723 19.6503 3.58482 19.6887 3.5359 19.7272C3.50096 19.7551 3.46952 19.7796 3.43458 19.8075C3.38217 19.853 3.33325 19.8984 3.28434 19.9438C3.25639 19.9718 3.22843 19.9962 3.20048 20.0242C3.14458 20.0801 3.09566 20.1395 3.04325 20.1989C3.02578 20.2199 3.00482 20.2409 2.98735 20.2618C2.91747 20.3457 2.85458 20.4296 2.79518 20.5204C2.78819 20.5274 2.7847 20.5379 2.7812 20.5449C2.7288 20.6253 2.67639 20.7091 2.63096 20.793C2.61349 20.8245 2.59952 20.8559 2.58554 20.8874C2.5506 20.9538 2.51916 21.0167 2.4912 21.0866C2.47374 21.125 2.45976 21.1634 2.44578 21.2019C2.42133 21.2648 2.39687 21.3277 2.3759 21.3941C2.36193 21.436 2.35145 21.478 2.33747 21.5199C2.32 21.5828 2.30253 21.6457 2.28855 21.7121C2.27807 21.7575 2.27108 21.803 2.2606 21.8484C2.25361 21.8833 2.24663 21.9148 2.23964 21.9497H1.04819V17.1656H2.01952H2.02301H15.7753H15.7788H17.2253V21.9462Z" fill="white"/>
</svg>
